<?xml version="1.0" standalone="no"?>
<!DOCTYPE svg PUBLIC "-//W3C//DTD SVG 1.1//EN" "http://www.w3.org/Graphics/SVG/1.1/DTD/svg11.dtd" >
<svg xmlns="http://www.w3.org/2000/svg">
<metadata>
<json>
<![CDATA[
{
	"fontFamily": "indialinks",
	"majorVersion": 1,
	"minorVersion": 0,
	"designer": "Prajakta Sarfare",
	"version": "Version 1.0",
	"fontId": "indialinks",
	"psName": "indialinks",
	"subFamily": "Regular",
	"fullName": "indialinks",
	"description": "Font generated by IcoMoon."
}
]]>
</json>
</metadata>
<defs>
<font id="indialinks" horiz-adv-x="1024">
<font-face units-per-em="1024" ascent="960" descent="-64" />
<missing-glyph horiz-adv-x="1024" />
<glyph unicode="&#x20;" horiz-adv-x="512" d="" />
<glyph unicode="&#xe600;" glyph-name="back-arrow" data-tags="back-arrow" horiz-adv-x="714" d="M514.381-64c-9.526 0-19.051 4.763-28.577 9.526l-476.279 476.279c-14.288 14.288-14.288 38.102 0 52.391l476.279 476.279c14.288 14.288 38.102 14.288 52.391 0l161.935-161.935c9.526-9.526 14.288-19.051 14.288-28.577s-4.763-19.051-9.526-28.577l-285.767-285.767 285.767-285.767c9.526-9.526 9.526-19.051 9.526-28.577s-4.763-19.051-9.526-28.577l-161.935-161.935c-9.526 0-19.051-4.763-28.577-4.763zM52.391 450.381l461.991-461.991 147.647 147.647-309.581 309.581 309.581 309.581-147.647 147.647-461.991-452.465z" />
<glyph unicode="&#xe601;" glyph-name="back-arrow-active" data-tags="back-arrow-active" horiz-adv-x="714" d="M514.381-64c-9.526 0-19.051 4.763-28.577 9.526l-476.279 476.279c-14.288 14.288-14.288 38.102 0 52.391l476.279 476.279c14.288 14.288 38.102 14.288 52.391 0l161.935-161.935c9.526-9.526 14.288-19.051 14.288-28.577s-4.763-19.051-9.526-28.577l-285.767-285.767 285.767-285.767c9.526-9.526 9.526-19.051 9.526-28.577s-4.763-19.051-9.526-28.577l-161.935-161.935c-9.526 0-19.051-4.763-28.577-4.763zM52.391 450.381l461.991-461.991 147.647 147.647-309.581 309.581 309.581 309.581-147.647 147.647-461.991-452.465z" />
<glyph unicode="&#xe602;" glyph-name="chat" data-tags="chat" d="M960 198.4c-140.8-249.6-448-339.2-697.6-198.4-12.8 6.4-19.2 12.8-32 19.2l-160-57.6 44.8 160c-134.4 160-160 390.4-57.6 576 147.2 243.2 454.4 332.8 704 198.4s332.8-448 198.4-697.6zM729.6 838.4c-217.6 121.6-492.8 44.8-614.4-172.8s-44.8-492.8 172.8-608c217.6-121.6 492.8-44.8 614.4 172.8s44.8 492.8-172.8 608zM320 320h384v-64h-384v64zM320 480h384v-64h-384v64zM320 640h384v-64h-384v64z" />
<glyph unicode="&#xe603;" glyph-name="checkbox" data-tags="checkbox" d="M1024-64h-1024v1024h1024v-1024zM39.385-24.615h945.231v945.231h-945.231v-945.231z" />
<glyph unicode="&#xe604;" horiz-adv-x="1352" d="M1339.077 841.846l-105.026 91.897c-26.256 26.256-65.641 26.256-91.897 0l-485.744-472.615-236.308 236.308c-26.256 26.256-78.769 26.256-105.026 0l-91.897-91.897c-26.256-26.256-26.256-65.641 0-91.897l288.821-288.821c0 0 0 0 0-13.128l91.897-91.897c13.128-13.128 39.385-26.256 52.513-26.256s39.385 0 52.513 26.256l91.897 91.897c0 0 0 0 0 13.128l525.128 525.128c39.385 26.256 39.385 65.641 13.128 91.897z" />
<glyph unicode="&#xe605;" horiz-adv-x="1352" d="M984.615 316.718v-341.333h-945.231v945.231h945.231v-52.513l39.385 39.385v52.513h-1024v-1024h1024v433.231z" />
<glyph unicode="&#xe606;" glyph-name="close" data-tags="close" d="M618.82 451.683l383.079-383.079-95.77-95.77-383.079 383.079-419.914-419.914-103.137 110.504 419.914 419.914-375.712 368.345 95.77 95.77 375.712-375.712 397.813 405.18 103.137-103.137-397.813-405.18z" />
<glyph unicode="&#xe607;" glyph-name="cpanel" data-tags="control-panel" d="M794.819 550.4c-39.010 0-73.143-19.505-92.648-53.638h-482.743c-29.257 0-53.638-24.381-53.638-53.638s24.381-53.638 53.638-53.638h482.743c19.505-29.257 53.638-53.638 92.648-53.638 58.514 0 102.4 48.762 102.4 102.4s-43.886 112.152-102.4 112.152zM692.419 418.743h-472.99c-19.505 0-29.257 14.629-29.257 29.257s14.629 29.257 29.257 29.257h472.99c-4.876-9.752-4.876-19.505-4.876-29.257s4.876-19.505 4.876-29.257zM794.819 365.105c-43.886 0-82.895 39.010-82.895 82.895s39.010 82.895 82.895 82.895c43.886 0 82.895-39.010 82.895-82.895s-39.010-82.895-82.895-82.895zM229.181 594.286c39.010 0 73.143 19.505 92.648 53.638h482.743c29.257 0 53.638 24.381 53.638 53.638s-24.381 53.638-53.638 53.638h-482.743c-19.505 29.257-53.638 48.762-92.648 48.762-58.514 0-102.4-48.762-102.4-102.4s43.886-107.276 102.4-107.276zM331.581 730.819h472.99c19.505 0 29.257-14.629 29.257-29.257s-9.752-34.133-29.257-34.133h-472.99c4.876 9.752 4.876 19.505 4.876 29.257 0 14.629-4.876 24.381-4.876 34.133zM229.181 784.457c43.886 0 82.895-39.010 82.895-82.895s-34.133-87.771-82.895-87.771-82.895 39.010-82.895 82.895 39.010 87.771 82.895 87.771zM804.571 248.076h-482.743c0 4.876-4.876 9.752-4.876 9.752s0 0 0 0c-9.752 9.752-14.629 14.629-24.381 19.505 0 0 0 0 0 0-4.876 0-4.876 4.876-9.752 4.876 0 0 0 0 0 0-4.876 4.876-14.629 9.752-24.381 9.752 0 0 0 0-4.876 0s-4.876 0-9.752 0c0 0 0 0-4.876 0s-9.752 0-14.629 0c-58.514 0-102.4-48.762-102.4-102.4s48.762-102.4 102.4-102.4c4.876 0 9.752 0 14.629 0 0 0 0 0 4.876 0s4.876 0 9.752 0c0 0 0 0 4.876 0 9.752 0 14.629 4.876 24.381 9.752 0 0 0 0 0 0 4.876 0 4.876 4.876 9.752 4.876 0 0 0 0 0 0 4.876 4.876 14.629 9.752 19.505 19.505 0 0 0 0 0 0 4.876 4.876 4.876 4.876 4.876 9.752h482.743c29.257 0 53.638 24.381 53.638 53.638s-19.505 63.39-48.762 63.39zM229.181 111.543c-43.886 0-82.895 39.010-82.895 82.895s39.010 82.895 82.895 82.895 82.895-39.010 82.895-82.895-34.133-82.895-82.895-82.895zM804.571 165.181h-472.99c0 4.876 0 9.752 4.876 14.629 0 0 0 0 0 4.876s0 9.752 0 14.629c0 4.876 0 9.752 0 14.629 0 0 0 0 0 4.876s0 9.752-4.876 14.629h472.99c19.505 0 29.257-14.629 29.257-29.257s-9.752-39.010-29.257-39.010zM941.105 960h-858.21c-43.886 0-82.895-39.010-82.895-82.895v-858.21c0-43.886 39.010-82.895 82.895-82.895h858.21c43.886 0 82.895 39.010 82.895 82.895v858.21c0 43.886-39.010 82.895-82.895 82.895zM980.114 18.895c0-24.381-19.505-43.886-43.886-43.886h-853.333c-24.381 0-43.886 19.505-43.886 43.886v858.21c0 24.381 19.505 43.886 43.886 43.886h858.21c24.381 0 43.886-19.505 43.886-43.886v-858.21z" />
<glyph unicode="&#xe608;" glyph-name="domain-forwarding" data-tags="domain-forwarding" horiz-adv-x="1295" d="M1159.711-64h-1024c-74.024 0-135.711 61.687-135.711 135.711v752.578c0 74.024 61.687 135.711 135.711 135.711h1024c74.024 0 135.711-61.687 135.711-135.711v-752.578c0-74.024-61.687-135.711-135.711-135.711zM135.711 904.482c-43.181 0-80.193-37.012-80.193-80.193v-752.578c0-43.181 37.012-80.193 80.193-80.193h1024c43.181 0 80.193 37.012 80.193 80.193v752.578c0 43.181-37.012 80.193-80.193 80.193h-1024zM1270.747 639.229h-1246.072c-12.337 0-24.675 6.169-24.675 24.675s12.337 24.675 24.675 24.675h1239.904c12.337 0 24.675-12.337 24.675-24.675s-6.169-24.675-18.506-24.675zM271.422 799.614c0-30.662-24.856-55.518-55.518-55.518s-55.518 24.856-55.518 55.518c0 30.662 24.856 55.518 55.518 55.518s55.518-24.856 55.518-55.518zM431.807 799.614c0-30.662-24.856-55.518-55.518-55.518s-55.518 24.856-55.518 55.518c0 30.662 24.856 55.518 55.518 55.518s55.518-24.856 55.518-55.518zM592.193 799.614c0-30.662-24.856-55.518-55.518-55.518s-55.518 24.856-55.518 55.518c0 30.662 24.856 55.518 55.518 55.518s55.518-24.856 55.518-55.518zM943.807 423.325l92.53-86.361-92.53-86.361v67.855h-660.048v49.349h653.88v55.518zM894.458 522.024v-111.036h-653.88v-135.711h653.88v-123.373l209.735 185.060-209.735 185.060z" />
<glyph unicode="&#xe609;" glyph-name="domain-parking" data-tags="domain-parking" horiz-adv-x="1295" d="M1159.711-64h-1024c-74.024 0-135.711 61.687-135.711 135.711v752.578c0 74.024 61.687 135.711 135.711 135.711h1024c74.024 0 135.711-61.687 135.711-135.711v-752.578c0-74.024-61.687-135.711-135.711-135.711zM135.711 904.482c-43.181 0-80.193-37.012-80.193-80.193v-752.578c0-43.181 37.012-80.193 80.193-80.193h1024c43.181 0 80.193 37.012 80.193 80.193v752.578c0 43.181-37.012 80.193-80.193 80.193h-1024zM1270.747 639.229h-1246.072c-12.337 0-24.675 6.169-24.675 24.675s12.337 24.675 24.675 24.675h1239.904c12.337 0 24.675-12.337 24.675-24.675s-6.169-24.675-18.506-24.675zM271.422 799.614c0-30.662-24.856-55.518-55.518-55.518s-55.518 24.856-55.518 55.518c0 30.662 24.856 55.518 55.518 55.518s55.518-24.856 55.518-55.518zM431.807 799.614c0-30.662-24.856-55.518-55.518-55.518s-55.518 24.856-55.518 55.518c0 30.662 24.856 55.518 55.518 55.518s55.518-24.856 55.518-55.518zM592.193 799.614c0-30.662-24.856-55.518-55.518-55.518s-55.518 24.856-55.518 55.518c0 30.662 24.856 55.518 55.518 55.518s55.518-24.856 55.518-55.518zM437.976 349.301c0 0 0 6.169 0 6.169s0 6.169-6.169 6.169 0 6.169 0 6.169c-6.169 0-6.169 6.169-12.337 6.169s-12.337 6.169-18.506 6.169c-6.169 6.169-12.337 6.169-18.506 12.337s-6.169 6.169-12.337 12.337 0 12.337 0 18.506c0 12.337 0 18.506 0 24.675s6.169 12.337 12.337 12.337c6.169 6.169 12.337 6.169 18.506 12.337 6.169 0 12.337 6.169 24.675 6.169 6.169 0 18.506 0 24.675-6.169s6.169-6.169 12.337-12.337 6.169-12.337 12.337-18.506c0-6.169 6.169-12.337 6.169-18.506h-37.012c0 6.169 0 6.169 0 12.337s0 6.169-6.169 6.169c0 0-6.169 6.169-6.169 6.169s-6.169 0-6.169 0-6.169 0-6.169 0-6.169 0-6.169-6.169c0 0 0-6.169-6.169-6.169 0 0 0-6.169 0-6.169s0-6.169 0-6.169c0 0 0-6.169 6.169-6.169 0 0 6.169-6.169 6.169-6.169 0-6.169 6.169-6.169 6.169-12.337 6.169 0 12.337-6.169 18.506-12.337s12.337-6.169 12.337-12.337 6.169-12.337 6.169-12.337 0-12.337 0-18.506c0-6.169 0-12.337-6.169-18.506 0-6.169-6.169-12.337-12.337-12.337s-12.337-6.169-18.506-6.169c-6.169 0-12.337-6.169-24.675-6.169-6.169 0-12.337 0-18.506 6.169-6.169 0-12.337 6.169-18.506 12.337 12.337 0 6.169 6.169 6.169 12.337s-6.169 12.337-6.169 24.675h37.012c0-6.169 0-12.337 0-12.337s0-6.169 6.169-6.169c0 0 6.169-6.169 6.169-6.169s6.169 0 12.337 0c6.169 0 6.169 0 6.169 0s6.169 0 6.169 6.169 0 6.169 0 6.169c0 0 0 0 0 6.169zM616.867 373.976c0-12.337 0-24.675-6.169-30.843 0-6.169-6.169-18.506-12.337-24.675s-12.337-12.337-18.506-12.337c-6.169 0-18.506-6.169-24.675-6.169s-18.506 0-24.675 6.169c-6.169 0-12.337 6.169-18.506 12.337s-12.337 12.337-12.337 24.675c-6.169 6.169-6.169 18.506-6.169 30.843v24.675c0 12.337 0 24.675 6.169 30.843s6.169 18.506 12.337 24.675 12.337 12.337 18.506 12.337 18.506 6.169 24.675 6.169c6.169 0 18.506 0 24.675-6.169s12.337-6.169 18.506-12.337c6.169-6.169 12.337-12.337 12.337-24.675s6.169-18.506 6.169-30.843v-24.675zM579.855 398.651c0 6.169 0 12.337 0 18.506s0 12.337-6.169 12.337 0 12.337-6.169 12.337c-6.169 0-6.169 0-12.337 0s-6.169 0-12.337 0-6.169-6.169-6.169-6.169-6.169-6.169-6.169-12.337c0-6.169 0-12.337 0-18.506v-30.843c0-6.169 0-12.337 0-18.506s0-12.337 6.169-12.337c0-6.169 6.169-6.169 6.169-6.169 6.169 0 6.169 0 12.337 0s6.169 0 12.337 0 6.169 6.169 6.169 6.169 6.169 0 6.169 6.169 0 12.337 0 18.506v30.843zM758.747 373.976c0-12.337 0-24.675-6.169-30.843 0-6.169-6.169-18.506-12.337-24.675s-12.337-12.337-18.506-12.337c-6.169 0-18.506-6.169-24.675-6.169s-18.506 0-24.675 6.169c-6.169 0-12.337 6.169-18.506 12.337s-12.337 12.337-12.337 24.675c0 6.169-6.169 18.506-6.169 30.843v24.675c0 12.337 0 24.675 6.169 30.843s6.169 18.506 12.337 24.675 12.337 12.337 18.506 12.337 18.506 6.169 24.675 6.169c6.169 0 18.506 0 24.675-6.169s12.337-6.169 18.506-12.337c6.169-6.169 12.337-12.337 12.337-24.675s6.169-18.506 6.169-30.843v-24.675zM727.904 398.651c0 6.169 0 12.337 0 18.506s0 12.337-6.169 12.337-6.169 6.169-6.169 6.169c-6.169 0-6.169 0-12.337 0s-6.169 0-12.337 0-6.169-6.169-6.169-6.169-6.169-6.169-6.169-12.337c0-6.169 0-12.337 0-18.506v-30.843c0-6.169 0-12.337 0-18.506s0-12.337 6.169-12.337c0-6.169 6.169-6.169 6.169-6.169 6.169 0 6.169 0 12.337 0s6.169 0 12.337 0 6.169 6.169 6.169 6.169 6.169 6.169 6.169 12.337 0 12.337 0 18.506v30.843zM906.795 299.952h-37.012l-49.349 111.036v-111.036h-37.012v172.723h37.012l49.349-111.036v111.036h37.012v-172.723zM931.47 318.458c0 0 0 6.169 0 6.169s0 6.169 6.169 6.169 6.169 0 6.169 6.169 6.169 0 6.169 0c0 0 6.169 0 6.169 0s6.169 0 6.169-6.169c0 0 0-6.169 6.169-6.169 0 0 0-6.169 0-6.169s0-6.169 0-6.169c0 0 0-6.169-6.169-6.169 0 0-6.169 0-6.169-6.169 0 0-6.169 0-6.169 0s-6.169 0-6.169 0c0 0-6.169 0-6.169 6.169s0 6.169-6.169 6.169 0 0 0 6.169zM962.313 355.47h-24.675l-6.169 117.205h37.012l-6.169-117.205zM980.819 201.253c-24.675 0-592.193 0-623.036 0s-30.843 49.349 0 49.349 579.855 0 623.036 0c24.675-6.169 24.675-49.349 0-49.349z" />
<glyph unicode="&#xe60a;" glyph-name="down-arrow" data-tags="down-arrow" horiz-adv-x="1920" d="M952.889-64l-952.889 1024h1920l-967.111-1024zM327.111 817.778l625.778-682.667 640 682.667h-1265.778z" />
<glyph unicode="&#xe60b;" glyph-name="forward-arrow" data-tags="forward-arrow" horiz-adv-x="714" d="M200.037-64c-9.526 0-19.051 4.763-28.577 9.526l-161.935 161.935c-14.288 14.288-14.288 38.102 0 52.391l285.767 285.767-285.767 285.767c-14.288 14.288-14.288 38.102 0 52.391l161.935 161.935c14.288 14.288 38.102 14.288 52.391 0l476.279-476.279c14.288-14.288 14.288-38.102 0-52.391l-476.279-476.279c-4.763 0-14.288-4.763-23.814-4.763zM52.391 136.037l147.647-147.647 461.991 461.991-461.991 457.228-147.647-147.647 309.581-309.581-309.581-314.344z" />
<glyph unicode="&#xe60c;" glyph-name="info-active" data-tags="info-active" d="M512 960c-285.257 0-512-226.743-512-512s226.743-512 512-512c285.257 0 512 226.743 512 512s-226.743 512-512 512zM526.629 235.886c0 0-7.314-7.314-14.629-7.314s-14.629 0-14.629 7.314-7.314 14.629-7.314 21.943c0 7.314 0 14.629 7.314 14.629 0 7.314 7.314 7.314 14.629 7.314s14.629 0 14.629-7.314 7.314-7.314 7.314-14.629 0-14.629-7.314-21.943zM614.4 535.771c0-14.629-7.314-21.943-14.629-36.571s-7.314-14.629-21.943-29.257-14.629-14.629-21.943-29.257c-7.314-7.314-14.629-21.943-21.943-36.571 0-14.629-7.314-29.257-7.314-43.886h-29.257c0 14.629 0 21.943 0 36.571 0 7.314 7.314 21.943 7.314 29.257s7.314 7.314 14.629 21.943c7.314 7.314 14.629 14.629 21.943 29.257 7.314 7.314 14.629 14.629 21.943 21.943s7.314 14.629 14.629 21.943 7.314 14.629 7.314 21.943 0 21.943 0 29.257c0 14.629 0 21.943-7.314 36.571 0 7.314-7.314 21.943-14.629 29.257s-7.314 7.314-14.629 14.629c-7.314 0-14.629 0-29.257 0-7.314 0-21.943 0-29.257-7.314s-7.314-7.314-14.629-7.314c-7.314-7.314-14.629-21.943-14.629-29.257s-7.314-21.943-7.314-29.257h-36.571c0 14.629 0 36.571 7.314 43.886 7.314 14.629 14.629 29.257 21.943 36.571 14.629 7.314 21.943 14.629 36.571 21.943s21.943 7.314 36.571 7.314c14.629 0 29.257 0 43.886-7.314s21.943-14.629 29.257-21.943c7.314-7.314 14.629-21.943 21.943-36.571s7.314-29.257 7.314-43.886c0-21.943-7.314-29.257-7.314-43.886z" />
<glyph unicode="&#xe60d;" glyph-name="info-inactive" data-tags="info-inactive" d="M512 886.857c241.371 0 438.857-197.486 438.857-438.857s-197.486-438.857-438.857-438.857c-241.371 0-438.857 197.486-438.857 438.857s197.486 438.857 438.857 438.857zM512 960c-285.257 0-512-226.743-512-512s226.743-512 512-512 512 226.743 512 512-226.743 512-512 512v0zM497.371 360.229c0 14.629 0 21.943 0 36.571 0 7.314 7.314 21.943 7.314 29.257s7.314 7.314 14.629 21.943c7.314 7.314 14.629 14.629 21.943 29.257 7.314 7.314 14.629 14.629 21.943 21.943s7.314 14.629 14.629 21.943 7.314 14.629 7.314 21.943 0 21.943 0 29.257c0 14.629 0 21.943-7.314 36.571 0 7.314-7.314 21.943-14.629 29.257s-7.314 7.314-14.629 14.629c-7.314 0-14.629 0-29.257 0-7.314 0-21.943 0-29.257-7.314s-7.314-7.314-14.629-7.314c-7.314-7.314-14.629-21.943-14.629-29.257s-7.314-21.943-7.314-29.257h-36.571c0 14.629 0 36.571 7.314 43.886 7.314 14.629 14.629 29.257 21.943 36.571 14.629 7.314 21.943 14.629 36.571 21.943s21.943 7.314 36.571 7.314c14.629 0 29.257 0 43.886-7.314s21.943-14.629 29.257-21.943c7.314-7.314 14.629-21.943 21.943-36.571s7.314-29.257 7.314-43.886c0-14.629 0-29.257-7.314-36.571 0-14.629-7.314-21.943-14.629-36.571s-7.314-21.943-21.943-36.571-14.629-14.629-21.943-29.257-14.629-21.943-21.943-36.571c0-14.629-7.314-29.257-7.314-43.886h-29.257zM490.057 257.829c0 7.314 0 14.629 7.314 14.629 0 7.314 7.314 7.314 14.629 7.314s14.629 0 14.629-7.314 7.314-7.314 7.314-14.629 0-14.629-7.314-14.629c0-7.314-7.314-14.629-14.629-14.629s-14.629 0-14.629 7.314-7.314 14.629-7.314 21.943z" />
<glyph unicode="&#xe60e;" glyph-name="linux" data-tags="linux" horiz-adv-x="1051" d="M314.027 441.173c6.827 20.48 6.827 47.787 0 61.44-6.827 27.307-20.48 40.96-40.96 47.787-6.827 0-13.653 0-20.48 0-34.133 0-61.44-27.307-75.093-68.267-6.827-13.653-6.827-34.133 0-54.613s20.48-40.96 40.96-47.787c6.827 0 13.653 0 20.48 0 20.48 0 34.133 6.827 47.787 20.48 13.653 6.827 27.307 27.307 27.307 40.96zM266.24 461.653c-6.827-20.48-20.48-34.133-27.307-34.133 0 0 0 0-6.827 0 0 0-6.827 0-6.827 6.827s0 20.48 0 34.133c6.827 20.48 20.48 34.133 27.307 34.133 0 0 0 0 6.827 0s13.653-20.48 6.827-40.96zM764.587 393.387c13.653-13.653 34.133-20.48 47.787-20.48v0c6.827 0 13.653 0 20.48 0 20.48 6.827 34.133 20.48 40.96 47.787 6.827 20.48 0 40.96-6.827 61.44-13.653 40.96-40.96 68.267-75.093 68.267-6.827 0-13.653 0-20.48 0-20.48-6.827-34.133-20.48-40.96-47.787-6.827-20.48-6.827-40.96 0-61.44 13.653-13.653 20.48-34.133 34.133-47.787zM798.72 502.613c0 0 0 0 0 0 13.653 0 27.307-13.653 27.307-34.133 6.827-13.653 6.827-27.307 0-34.133 0-6.827-6.827-6.827-6.827-6.827s0 0-6.827 0v0c-13.653 0-27.307 13.653-34.133 27.307 0 27.307 6.827 47.787 20.48 47.787zM525.653 919.040c68.267 0 129.707-13.653 191.147-47.787 54.613-27.307 109.227-68.267 157.013-122.88 88.747-102.4 143.36-238.933 143.36-368.64s-47.787-232.107-143.36-307.2c-20.48-13.653-40.96-34.133-68.267-40.96v0c68.267 61.44 116.053 143.36 143.36 252.587 40.96 170.667-27.307 293.547-68.267 348.16-61.44 75.093-143.36 122.88-211.627 122.88-27.307 0-47.787-6.827-68.267-20.48-27.307-27.307-54.613-61.44-75.093-95.573v0c-20.48 34.133-40.96 68.267-75.093 95.573-13.653 13.653-40.96 20.48-68.267 20.48-68.267 0-150.187-47.787-211.627-122.88-40.96-54.613-109.227-170.667-68.267-348.16 27.307-109.227 75.093-191.147 143.36-252.587v0c-20.48 13.653-47.787 27.307-68.267 40.96-95.573 75.093-143.36 184.32-143.36 307.2 0 129.707 54.613 266.24 143.36 368.64 47.787 54.613 95.573 88.747 157.013 122.88s129.707 47.787 191.147 47.787zM525.653 946.347c-68.267 0-136.533-13.653-204.8-47.787-54.613-27.307-109.227-75.093-157.013-122.88-95.573-109.227-150.187-252.587-150.187-389.12s54.613-252.587 150.187-327.68c47.787-34.133 102.4-68.267 163.84-81.92 61.44-20.48 129.707-27.307 197.973-27.307s136.533 6.827 197.973 27.307c61.44 20.48 116.053 47.787 163.84 81.92 102.4 81.92 150.187 191.147 150.187 327.68s-54.613 279.893-150.187 382.293c-47.787 54.613-102.4 95.573-163.84 122.88-61.44 40.96-129.707 54.613-197.973 54.613v0zM525.653 93.013c54.613 0 109.227 27.307 143.36 88.747 27.307 40.96 34.133 81.92 34.133 81.92v6.827c0 0 6.827 6.827 6.827 6.827 13.653 20.48 34.133 47.787 34.133 68.267 0 95.573-75.093 163.84-191.147 170.667v109.227c13.653 34.133 34.133 61.44 61.44 88.747 13.653 13.653 34.133 13.653 54.613 13.653 116.053 0 320.853-170.667 252.587-436.907-27.307-116.053-75.093-191.147-136.533-238.933-27.307-13.653-54.613-27.307-81.92-34.133-54.613-20.48-116.053-27.307-184.32-27.307s-129.707 6.827-184.32 27.307c-27.307 6.827-54.613 20.48-81.92 34.133-54.613 47.787-109.227 122.88-136.533 238.933-47.787 266.24 150.187 436.907 266.24 436.907 20.48 0 40.96-6.827 54.613-13.653 34.133-27.307 54.613-54.613 68.267-88.747v-116.053c-122.88-6.827-197.973-75.093-197.973-170.667 0-20.48 13.653-47.787 34.133-68.267 0 0 6.827-6.827 6.827-6.827v-6.827c0 0 6.827-40.96 34.133-81.92 40.96-54.613 88.747-81.92 143.36-81.92v0zM416.427 270.507c-6.827 0-6.827 0-13.653 0-13.653 6.827-27.307 13.653-34.133 27.307 0 6.827-6.827 6.827-6.827 13.653-13.653 13.653-20.48 27.307-20.48 27.307 0 40.96 20.48 75.093 47.787 95.573 34.133 20.48 81.92 34.133 136.533 34.133s102.4-13.653 136.533-34.133c34.133-20.48 47.787-54.613 47.787-95.573 0-6.827-6.827-20.48-20.48-34.133 0-6.827-6.827-6.827-6.827-13.653-6.827-6.827-20.48-13.653-34.133-20.48-6.827 0-6.827 0-13.653 0v0c-6.827 0-6.827 0-13.653 6.827l-20.48 13.653-13.653-27.307c0 0-13.653-40.96-61.44-81.92-40.96 34.133-61.44 81.92-61.44 81.92l-6.827 27.307-27.307-13.653c-6.827-6.827-13.653-6.827-13.653-6.827v0zM409.6 243.2c6.827 0 6.827 0 13.653 0 13.653-27.307 47.787-75.093 102.4-116.053 54.613 34.133 81.92 81.92 102.4 116.053 6.827 0 6.827 0 13.653 0v0c6.827 0 6.827 0 13.653 0-20.48-47.787-61.44-102.4-129.707-116.053 0 0 0 0 0 0-40.96 6.827-81.92 34.133-116.053 81.92-6.827 13.653-13.653 20.48-13.653 34.133 6.827 0 13.653 0 13.653 0v0zM525.653 127.147c0 0 0 0 0 0s0 0 0 0 0 0 0 0v0z" />
<glyph unicode="&#xe60f;" glyph-name="login" data-tags="login" horiz-adv-x="768" d="M363.52 284.16v-112.64c0-10.24 10.24-20.48 20.48-20.48s20.48 10.24 20.48 20.48v112.64c10.24 5.12 20.48 20.48 20.48 35.84 0 25.6-20.48 40.96-40.96 40.96s-40.96-15.36-40.96-40.96c0-15.36 5.12-30.72 20.48-35.84zM640 576v128c0 143.36-112.64 256-256 256s-256-112.64-256-256h40.96c0 117.76 97.28 215.040 215.040 215.040s215.040-97.28 215.040-215.040v-128h-599.040v-640h768v640h-128zM727.040-23.040h-686.080v558.080h680.96v-558.080z" />
<glyph unicode="&#xe610;" glyph-name="logout" data-tags="logout" horiz-adv-x="768" d="M424.96 320c0-22.622-18.338-40.96-40.96-40.96s-40.96 18.338-40.96 40.96c0 22.622 18.338 40.96 40.96 40.96s40.96-18.338 40.96-40.96zM384 151.040c-10.24 0-20.48 10.24-20.48 20.48v128c0 10.24 10.24 20.48 20.48 20.48s20.48-10.24 20.48-20.48v-128c0-10.24-10.24-20.48-20.48-20.48zM768-64h-768v640h768v-640zM40.96-23.040h680.96v558.080h-680.96v-558.080zM640 555.52h-40.96v148.48c0 117.76-97.28 215.040-215.040 215.040s-215.040-97.28-215.040-215.040v-148.48h-40.96v148.48c0 143.36 112.64 256 256 256s256-112.64 256-256v-148.48z" />
<glyph unicode="&#xe611;" glyph-name="manage-domains" data-tags="manage-domains-02" horiz-adv-x="939" d="M183.336 714.061h353.258c8.943 0 17.886 8.943 17.886 17.886v156.507c0 8.943-8.943 17.886-17.886 17.886h-58.131v35.773c0 8.943-8.943 17.886-17.886 17.886h-201.223c-8.943 0-17.886-8.943-17.886-17.886v-35.773h-58.131c-8.943 0-17.886-8.943-17.886-17.886v-156.507c0-8.943 8.943-17.886 17.886-17.886v0zM201.223 870.568h58.131c8.943 0 17.886 8.943 17.886 17.886v35.773h165.45v-35.773c0-8.943 8.943-17.886 17.886-17.886h58.131v-120.734h-317.485v120.734zM393.502 852.681c0-17.886-13.415-31.301-31.301-31.301s-31.301 13.415-31.301 31.301c0 17.886 13.415 31.301 31.301 31.301s31.301-13.415 31.301-31.301v0zM594.725 584.384h-460.576c-8.943 0-17.886 8.943-17.886 17.886s8.943 17.886 17.886 17.886h465.048c8.943 0 17.886-8.943 17.886-17.886s-13.415-17.886-22.358-17.886zM594.725 517.31h-460.576c-8.943 0-17.886 8.943-17.886 17.886s8.943 17.886 17.886 17.886h465.048c8.943 0 17.886-8.943 17.886-17.886s-13.415-17.886-22.358-17.886zM594.725 450.236h-460.576c-8.943 0-17.886 8.943-17.886 17.886s8.943 17.886 17.886 17.886h465.048c8.943 0 17.886-8.943 17.886-17.886s-13.415-17.886-22.358-17.886zM313.013 114.865h-178.865c-8.943 0-17.886 8.943-17.886 17.886s8.943 17.886 17.886 17.886h178.865c8.943 0 17.886-8.943 17.886-17.886s-8.943-17.886-17.886-17.886zM724.402 499.424v348.786c0 8.943-8.943 17.886-17.886 17.886h-93.904c-8.943 0-17.886-8.943-17.886-17.886s8.943-17.886 17.886-17.886h76.017v-362.201l13.415 8.943 22.358 22.358zM688.629-28.227h-652.856v858.55h76.017c8.943 0 17.886 8.943 17.886 17.886s-8.943 17.886-17.886 17.886h-93.904c-8.943 0-17.886-8.943-17.886-17.886v-894.323c0-8.943 8.943-17.886 17.886-17.886h688.629c8.943 0 17.886 8.943 17.886 17.886v134.148l-35.773-26.83v-89.432zM594.725 418.934h-460.576c-8.943 0-17.886-8.943-17.886-17.886s8.943-17.886 17.886-17.886h438.218l35.773 26.83c-4.472 4.472-8.943 8.943-13.415 8.943zM134.148 351.86c-8.943 0-17.886-8.943-17.886-17.886s8.943-17.886 17.886-17.886h353.258l44.716 35.773h-397.974zM456.105 284.786h-321.956c-8.943 0-17.886-8.943-17.886-17.886s8.943-17.886 17.886-17.886h313.013l8.943 26.83c-4.472 4.472 0 4.472 0 8.943zM134.148 217.712c-8.943 0-17.886-8.943-17.886-17.886s8.943-17.886 17.886-17.886h295.127l8.943 35.773h-304.070zM930.096 338.445l-111.79 147.563c-8.943 8.943-17.886 13.415-26.83 13.415s-17.886-4.472-22.358-8.943l-263.825-201.223c-4.472-4.472-8.943-13.415-13.415-17.886l-44.716-147.563c-4.472-8.943 0-22.358 4.472-31.301s13.415-13.415 22.358-13.415h4.472l156.507 4.472c8.943 0 13.415 4.472 22.358 8.943l259.354 196.751c8.943 4.472 13.415 13.415 13.415 22.358 8.943 8.943 4.472 17.886 0 26.83zM737.817 405.52l22.358-26.83-192.279-147.563-22.358 26.83 192.279 147.563zM778.061 351.86l17.886-22.358-192.279-147.563-17.886 22.358 192.279 147.563zM541.066 114.865l-35.773 49.188 17.886 62.603 84.961-111.79h-67.074zM643.913 128.279l-22.358 26.83 192.279 147.563 22.358-26.83-192.279-147.563zM867.493 298.201l-31.301 40.245-71.546 89.432 31.301 22.358 102.847-134.148-31.301-17.886z" />
<glyph unicode="&#xe612;" glyph-name="new-tab" data-tags="new-tab" horiz-adv-x="1032" d="M942.080-64h-942.080v942.080h540.672v-122.88h-417.792v-696.32h696.32v425.984h122.88zM688.128 960v-122.88h139.264l-458.752-442.368 81.92-90.112 466.944 450.56v-163.84h114.688v368.64z" />
<glyph unicode="&#xe613;" glyph-name="profile" data-tags="profile" d="M665.6 637.44c-10.24 0-15.36 5.12-15.36 15.36s5.12 15.36 15.36 15.36h302.080c15.36 0 30.72-5.12 40.96-15.36v0c10.24-10.24 15.36-25.6 15.36-40.96v-619.52c0-15.36-5.12-30.72-15.36-40.96v0c-10.24-10.24-25.6-15.36-40.96-15.36h-911.36c-15.36 0-30.72 5.12-40.96 15.36s-15.36 25.6-15.36 40.96v619.52c0 15.36 5.12 30.72 15.36 40.96v0 0c10.24 10.24 25.6 15.36 40.96 15.36h302.080c10.24 0 15.36-5.12 15.36-15.36s-5.12-15.36-15.36-15.36h-302.080c-5.12 0-10.24 0-15.36-5.12s-10.24-10.24-10.24-20.48v-619.52c0-5.12 5.12-15.36 5.12-15.36 5.12-5.12 10.24-5.12 15.36-5.12h911.36c5.12 0 10.24 5.12 15.36 5.12v0c5.12 5.12 5.12 10.24 5.12 15.36v619.52c0 5.12-5.12 15.36-5.12 15.36-5.12 5.12-10.24 5.12-15.36 5.12h-296.96zM491.52 99.84c-10.24 0-15.36 5.12-15.36 15.36s5.12 15.36 15.36 15.36h245.76c10.24 0 15.36-5.12 15.36-15.36s-5.12-15.36-15.36-15.36h-245.76zM491.52 181.76c-10.24 0-15.36 5.12-15.36 15.36s5.12 15.36 15.36 15.36h394.24c10.24 0 15.36-5.12 15.36-15.36s-5.12-15.36-15.36-15.36h-394.24zM491.52 268.8c-10.24 0-15.36 5.12-15.36 15.36s5.12 15.36 15.36 15.36h394.24c10.24 0 15.36-5.12 15.36-15.36s-5.12-15.36-15.36-15.36h-394.24zM491.52 350.72c-10.24 0-15.36 5.12-15.36 15.36s5.12 15.36 15.36 15.36h394.24c10.24 0 15.36-5.12 15.36-15.36s-5.12-15.36-15.36-15.36h-394.24zM271.36 381.44c25.6 0 51.2-10.24 71.68-30.72v0c15.36-15.36 30.72-40.96 30.72-71.68 0-25.6-10.24-51.2-30.72-71.68v0c-15.36-15.36-40.96-30.72-71.68-30.72-25.6 0-51.2 10.24-71.68 30.72v0c-15.36 15.36-30.72 40.96-30.72 71.68s10.24 51.2 30.72 71.68v0c20.48 20.48 40.96 30.72 71.68 30.72v0zM317.44 330.24c-10.24 10.24-30.72 20.48-46.080 20.48-20.48 0-35.84-5.12-46.080-20.48v0c-15.36-10.24-20.48-30.72-20.48-46.080 0-20.48 5.12-35.84 20.48-46.080v0c10.24-10.24 30.72-20.48 46.080-20.48 20.48 0 35.84 5.12 46.080 20.48 10.24 10.24 20.48 30.72 20.48 46.080s-10.24 35.84-20.48 46.080v0zM189.44 99.84c-10.24 0-15.36 5.12-15.36 15.36s5.12 15.36 15.36 15.36h163.84c10.24 0 15.36-5.12 15.36-15.36s-5.12-15.36-15.36-15.36h-163.84zM665.6 555.52c-10.24 0-15.36 5.12-15.36 15.36s5.12 15.36 15.36 15.36h81.92c10.24 0 15.36-5.12 15.36-15.36v-81.92c0-10.24-5.12-15.36-15.36-15.36h-471.040c-10.24 0-20.48 5.12-20.48 15.36v81.92c0 10.24 5.12 15.36 15.36 15.36h87.040c10.24 0 15.36-5.12 15.36-15.36s-5.12-15.36-15.36-15.36h-66.56v-51.2h445.44v51.2h-71.68zM440.32 960h143.36c10.24 0 15.36-5.12 15.36-15.36v-373.76c0-10.24-5.12-15.36-15.36-15.36h-143.36c-10.24 0-15.36 5.12-15.36 15.36v373.76c0 10.24 5.12 15.36 15.36 15.36v0zM568.32 929.28h-112.64v-337.92h112.64v337.92zM537.6 862.72c0-15.36-10.24-25.6-25.6-25.6s-25.6 10.24-25.6 25.6c0 15.36 10.24 25.6 25.6 25.6s25.6-10.24 25.6-25.6v0z" />
<glyph unicode="&#xe614;" glyph-name="search" data-tags="search-icon-02" horiz-adv-x="1054" d="M648.101 147.713c-224.675 0-406.143 181.468-406.143 406.143s181.468 406.143 406.143 406.143 406.143-181.468 406.143-406.143-185.789-406.143-406.143-406.143zM648.101 916.793c-198.751 0-362.937-164.186-362.937-362.937s164.186-362.937 362.937-362.937 362.937 164.186 362.937 362.937-164.186 362.937-362.937 362.937zM648.101 277.333c-151.224 0-276.523 125.3-276.523 276.523s120.979 276.523 276.523 276.523 276.523-125.3 276.523-276.523-125.3-276.523-276.523-276.523zM648.101 787.173c-129.62 0-233.316-103.696-233.316-233.316s103.696-233.316 233.316-233.316 233.316 103.696 233.316 233.316-108.017 233.316-233.316 233.316zM159.865-64c-43.207 0-86.413 17.283-116.658 51.848-30.245 30.245-43.207 69.131-43.207 112.338s17.283 82.093 51.848 112.338l216.034 207.392 30.245-30.245-216.034-207.392c-25.924-25.924-38.886-56.169-38.886-86.413s8.641-60.489 30.245-82.093c25.924-25.924 60.489-38.886 95.055-34.565 25.924 4.321 51.848 12.962 69.131 30.245l224.675 211.713 30.245-30.245-224.675-211.713c-25.924-25.924-60.489-38.886-95.055-43.207-4.321 0-8.641 0-12.962 0zM144.715 245.404l170.745-177.493-31.139-29.955-170.745 177.493 31.139 29.955z" />
<glyph unicode="&#xe615;" glyph-name="settings" data-tags="settings" d="M552.96-64h-81.92c-35.84 0-61.44 30.72-61.44 61.44v81.92c-25.6 10.24-51.2 20.48-76.8 30.72l-56.32-56.32c-25.6-25.6-66.56-25.6-92.16 0l-61.44 61.44c-15.36 15.36-20.48 30.72-20.48 46.080s5.12 30.72 20.48 46.080l56.32 56.32c-15.36 25.6-25.6 51.2-30.72 76.8h-87.040c-35.84 0-61.44 30.72-61.44 61.44v87.040c0 15.36 5.12 30.72 20.48 46.080 10.24 15.36 25.6 20.48 40.96 20.48h81.92c10.24 25.6 20.48 51.2 30.72 76.8l-56.32 56.32c-20.48 25.6-20.48 66.56 0 92.16l61.44 61.44c25.6 25.6 66.56 25.6 92.16 0l56.32-56.32c25.6 15.36 51.2 25.6 76.8 30.72v81.92c0 30.72 30.72 61.44 66.56 61.44h87.040c35.84 0 61.44-30.72 61.44-61.44v-81.92c25.6-10.24 51.2-20.48 76.8-30.72l56.32 56.32c25.6 25.6 66.56 25.6 92.16 0l61.44-61.44c10.24-15.36 15.36-30.72 15.36-46.080s-5.12-30.72-15.36-46.080l-56.32-56.32c15.36-25.6 25.6-51.2 30.72-76.8h81.92c35.84 0 61.44-30.72 61.44-61.44v-87.040c0-15.36-5.12-30.72-20.48-46.080-10.24-10.24-30.72-20.48-46.080-20.48h-81.92c-10.24-25.6-20.48-51.2-30.72-76.8l56.32-56.32c25.6-25.6 25.6-66.56 0-92.16l-61.44-61.44c-25.6-25.6-66.56-25.6-92.16 0l-56.32 56.32c-25.6-15.36-51.2-25.6-76.8-30.72v-81.92c5.12-30.72-25.6-61.44-61.44-61.44zM322.56 161.28c5.12 0 5.12 0 10.24-5.12 30.72-20.48 61.44-30.72 97.28-40.96 10.24 0 15.36-10.24 15.36-20.48v-97.28c0-10.24 10.24-20.48 20.48-20.48h87.040c10.24 0 20.48 10.24 20.48 20.48v97.28c0 10.24 5.12 20.48 15.36 20.48 35.84 10.24 66.56 20.48 97.28 40.96 10.24 5.12 20.48 5.12 25.6-5.12l66.56-66.56c10.24-10.24 20.48-10.24 30.72 0l61.44 61.44c10.24 10.24 10.24 20.48 0 30.72l-66.56 66.56c-5.12 5.12-10.24 15.36-5.12 25.6 20.48 30.72 30.72 61.44 40.96 97.28 0 10.24 10.24 15.36 20.48 15.36h97.28c5.12 0 10.24 0 15.36 5.12s5.12 10.24 5.12 15.36v87.040c0 10.24-10.24 20.48-20.48 20.48h-97.28c-10.24 0-20.48 5.12-20.48 15.36-10.24 35.84-20.48 66.56-40.96 97.28-5.12 10.24-5.12 20.48 5.12 25.6l66.56 66.56c5.12 5.12 5.12 10.24 5.12 15.36s0 10.24-5.12 15.36l-61.44 61.44c-10.24 10.24-20.48 10.24-30.72 0l-61.44-66.56c-5.12-5.12-15.36-10.24-25.6-5.12-30.72 20.48-61.44 30.72-97.28 40.96-10.24 0-15.36 10.24-15.36 20.48v102.4c0 10.24-10.24 20.48-20.48 20.48h-87.040c-15.36 0-25.6-10.24-25.6-20.48v-97.28c0-10.24-5.12-20.48-15.36-20.48-30.72-10.24-66.56-25.6-97.28-40.96-5.12-5.12-15.36-5.12-25.6 0l-66.56 71.68c-10.24 10.24-20.48 10.24-30.72 0l-61.44-61.44c-10.24-10.24-10.24-20.48 0-30.72l71.68-66.56c5.12-5.12 10.24-15.36 5.12-25.6-20.48-30.72-35.84-66.56-46.080-97.28 0-10.24-10.24-15.36-20.48-15.36h-97.28c-5.12-5.12-10.24-5.12-10.24-10.24-5.12 0-10.24-10.24-10.24-15.36v-87.040c0-10.24 10.24-20.48 20.48-20.48h97.28c10.24 0 20.48-5.12 20.48-15.36 10.24-35.84 20.48-66.56 40.96-97.28 5.12-10.24 5.12-20.48-5.12-25.6l-66.56-66.56c-5.12-5.12-5.12-10.24-5.12-15.36s0-10.24 5.12-15.36l61.44-61.44c10.24-10.24 20.48-10.24 30.72 0l66.56 71.68c5.12 0 10.24 5.12 15.36 5.12zM512 232.96c-117.76 0-215.040 97.28-215.040 215.040s97.28 215.040 215.040 215.040 215.040-97.28 215.040-215.040-97.28-215.040-215.040-215.040zM512 616.96c-92.16 0-168.96-76.8-168.96-168.96s76.8-168.96 168.96-168.96 168.96 76.8 168.96 168.96-76.8 168.96-168.96 168.96z" />
<glyph unicode="&#xe616;" glyph-name="theft-protection" data-tags="theft-protection" horiz-adv-x="1034" d="M1019.077 960h-935.385c0 0-4.923 0-4.923 0-9.846 0-19.692-9.846-19.692-19.692v-59.077h-19.692c-24.615 0-39.385-14.769-39.385-34.462v-137.846c0-19.692 14.769-39.385 39.385-39.385h19.692v-393.846h-19.692c-19.692 0-39.385-14.769-39.385-39.385v-137.846c0-19.692 14.769-39.385 39.385-39.385h19.692v-14.769c0 0 0-4.923 0-4.923v-34.462c0-9.846 4.923-14.769 14.769-14.769h940.308c9.846 0 14.769 4.923 14.769 14.769v935.385c4.923 9.846 0 19.692-9.846 19.692v0zM39.385 704c-4.923 0-4.923 4.923-4.923 4.923v137.846c0 4.923 4.923 4.923 4.923 4.923h19.692v-147.692h-19.692zM39.385 93.538c-4.923 0-4.923 4.923-4.923 4.923v137.846c0 4.923 4.923 4.923 4.923 4.923h19.692v-147.692h-19.692zM999.385 19.692h-905.846v19.692c0 0 0 4.923 0 4.923v881.231h905.846v-905.846zM398.769 600.615c-29.538-34.462-49.231-78.769-49.231-128s19.692-93.538 49.231-128l-64-64c-4.923-4.923-4.923-19.692 0-24.615s9.846-4.923 14.769-4.923c4.923 0 9.846 0 14.769 4.923l59.077 64c34.462-29.538 78.769-44.308 123.077-44.308 49.231 0 88.615 14.769 123.077 44.308l64-64c4.923-4.923 9.846-4.923 14.769-4.923s9.846 0 14.769 4.923c4.923 4.923 4.923 19.692 0 24.615l-64 64c29.538 34.462 49.231 78.769 49.231 128s-19.692 93.538-44.308 128l59.077 64c4.923 4.923 4.923 19.692 0 24.615s-19.692 4.923-24.615 0l-64-64c-34.462 29.538-78.769 44.308-128 44.308s-93.538-14.769-123.077-44.308l-64 64c-4.923 4.923-19.692 4.923-24.615 0-9.846-4.923-9.846-14.769 0-24.615l64-64zM546.462 310.154c-39.385 0-73.846 14.769-98.462 34.462l54.154 54.154c14.769-9.846 29.538-14.769 44.308-14.769s29.538 4.923 44.308 9.846l54.154-54.154c-24.615-14.769-59.077-29.538-98.462-29.538v0zM497.231 472.615c0 9.846 0 14.769 4.923 19.692l19.692-19.692-19.692-19.692c0 4.923-4.923 14.769-4.923 19.692v0zM546.462 497.231l-19.692 19.692c4.923 0 9.846 4.923 19.692 4.923 4.923 0 14.769 0 19.692-4.923l-19.692-19.692zM566.154 428.308c-4.923 0-9.846-4.923-14.769-4.923s-14.769 0-19.692 4.923l14.769 14.769 19.692-14.769zM571.077 472.615l19.692 19.692c4.923-4.923 4.923-14.769 4.923-19.692 0-9.846 0-14.769-4.923-24.615l-19.692 24.615zM708.923 472.615c0-39.385-14.769-73.846-39.385-103.385l-54.154 54.154c9.846 14.769 14.769 29.538 14.769 49.231 0 14.769-4.923 34.462-14.769 44.308l54.154 54.154c24.615-24.615 39.385-59.077 39.385-98.462v0zM546.462 635.077c39.385 0 73.846-14.769 103.385-34.462l-54.154-54.154c-14.769 9.846-29.538 14.769-44.308 14.769s-29.538-4.923-44.308-14.769l-59.077 54.154c24.615 19.692 59.077 34.462 98.462 34.462v0zM477.538 521.846c-9.846-14.769-14.769-29.538-14.769-49.231s4.923-34.462 14.769-49.231l-54.154-54.154c-24.615 29.538-34.462 64-34.462 103.385s14.769 73.846 34.462 103.385l54.154-54.154zM128-29.538h201.846v-29.538h-201.846v29.538zM782.769-29.538h201.846v-29.538h-201.846v29.538z" />
<glyph unicode="&#xe617;" glyph-name="tools" data-tags="tools" d="M209.676-64v0c-29.257 0-53.638 4.876-82.895 14.629-4.876 4.876-14.629 9.752-14.629 14.629 0 9.752 0 14.629 4.876 19.505l82.895 82.895v68.267h-63.39l-82.895-82.895c-4.876-4.876-14.629-9.752-19.505-4.876-9.752 0-14.629 4.876-14.629 14.629-34.133 78.019-14.629 170.667 43.886 229.181 39.010 39.010 92.648 63.39 146.286 63.39 24.381 0 43.886-4.876 68.267-9.752l341.333 341.333c-24.381 73.143-4.876 156.038 48.762 214.552 39.010 39.010 92.648 63.39 146.286 63.39 29.257 0 53.638-4.876 82.895-14.629 4.876-4.876 14.629-9.752 14.629-14.629s0-14.629-4.876-19.505l-82.895-82.895v-68.267h68.267l82.895 82.895c4.876 4.876 14.629 9.752 19.505 4.876 9.752 0 14.629-4.876 14.629-14.629 34.133-78.019 14.629-170.667-43.886-229.181-39.010-39.010-92.648-63.39-146.286-63.39-24.381 0-43.886 4.876-68.267 9.752l-341.333-341.333c24.381-73.143 4.876-156.038-48.762-214.552-43.886-43.886-97.524-63.39-151.162-63.39zM180.419-15.238c9.752 0 19.505 0 29.257 0 43.886 0 82.895 14.629 117.029 48.762 48.762 48.762 58.514 117.029 34.133 180.419-4.876 9.752 0 19.505 4.876 24.381l360.838 360.838c4.876 4.876 14.629 9.752 24.381 4.876 19.505-9.752 43.886-14.629 63.39-14.629 43.886 0 82.895 14.629 117.029 48.762 39.010 39.010 53.638 92.648 43.886 146.286l-63.39-68.267c-4.876-4.876-9.752-4.876-14.629-4.876h-97.524c-14.629 0-24.381 9.752-24.381 24.381v97.524c0 4.876 4.876 9.752 4.876 14.629l63.39 63.39c-9.752 0-19.505 0-29.257 0-43.886 0-82.895-14.629-117.029-48.762-48.762-48.762-58.514-117.029-34.133-180.419 4.876-9.752 0-19.505-4.876-24.381l-360.838-360.838c-4.876-4.876-14.629-9.752-24.381-4.876-19.505 9.752-43.886 14.629-63.39 14.629-43.886 0-82.895-14.629-117.029-48.762-39.010-39.010-53.638-92.648-43.886-146.286l63.39 68.267c4.876 4.876 9.752 4.876 14.629 4.876h97.524c14.629 0 24.381-9.752 24.381-24.381v-97.524c0-4.876-4.876-9.752-4.876-14.629l-63.39-63.39zM931.352-64c-24.381 0-48.762 9.752-68.267 29.257l-214.552 214.552c-9.752 9.752-9.752 24.381 0 34.133l97.524 97.524c9.752 9.752 24.381 9.752 34.133 0l214.552-214.552c19.505-19.505 29.257-39.010 29.257-63.39s-9.752-48.762-29.257-68.267c-14.629-19.505-39.010-29.257-63.39-29.257zM702.171 194.438l195.048-195.048c19.505-19.505 48.762-19.505 63.39 0 9.752 9.752 14.629 19.505 14.629 34.133s-4.876 24.381-14.629 34.133l-195.048 195.048-63.39-68.267zM438.055 489.413l-265.492 265.492 34.48 34.48 265.492-265.492-34.48-34.48zM619.276 121.295c-4.876 0-9.752 0-14.629 4.876-9.752 9.752-9.752 24.381 0 34.133l195.048 195.048c9.752 9.752 24.381 9.752 34.133 0s9.752-24.381 0-34.133l-195.048-195.048c-9.752-4.876-14.629-4.876-19.505-4.876zM156.038 716.19c-4.876 0-14.629 0-19.505 4.876l-131.657 131.657c0 4.876-4.876 9.752-4.876 19.505s4.876 9.752 4.876 14.629l63.39 63.39c14.629 9.752 29.257 9.752 39.010 4.876l131.657-131.657c4.876-4.876 4.876-9.752 4.876-19.505s0-9.752-4.876-14.629l-68.267-68.267c-4.876-4.876-9.752-4.876-14.629-4.876zM58.514 872.229l97.524-97.524 34.133 34.133-97.524 97.524-34.133-34.133zM706.726 220.873l-172.398 172.398 34.48 34.48 172.398-172.398-34.48-34.48z" />
<glyph unicode="&#xe618;" glyph-name="up-arrow" data-tags="up-arrow" horiz-adv-x="1920" d="M1920-64h-1920l952.889 1024 967.111-1024zM327.111 78.222h1265.778l-640 668.444-625.778-668.444z" />
<glyph unicode="&#xe619;" glyph-name="windows" data-tags="windows" horiz-adv-x="926" d="M44.522 514.783v338.365l320.557 17.809v-356.174h-320.557zM409.6 924.383l-409.6-26.713v-427.409h409.6v454.122zM498.643 523.687v356.174l365.078 26.713v-382.887h-365.078zM926.052 960l-471.93-35.617v-454.122h471.93v489.739zM44.522 42.852v338.365h320.557v-356.174l-320.557 17.809zM409.6 425.739h-409.6v-427.409l409.6-26.713v454.122zM498.643 7.235v365.078h365.078v-382.887l-365.078 17.809zM926.052 425.739h-471.93v-454.122l471.93-35.617v489.739z" />
</font>
</defs>
</svg>
