<?xml version="1.0" encoding="utf-8"?>
<!-- Generator: Adobe Illustrator 17.0.0, SVG Export Plug-In . SVG Version: 6.00 Build 0)  -->
<!DOCTYPE svg PUBLIC "-//W3C//DTD SVG 1.1//EN" "http://www.w3.org/Graphics/SVG/1.1/DTD/svg11.dtd">
<svg version="1.1" id="Layer_1" xmlns="http://www.w3.org/2000/svg" xmlns:xlink="http://www.w3.org/1999/xlink" x="0px" y="0px"
	 width="15px" height="21.5px" viewBox="0 0 15 21.5" enable-background="new 0 0 15 21.5" xml:space="preserve">
<g>
	<path fill="#339CD5" d="M10.8,21.5c-0.2,0-0.4-0.1-0.6-0.2l-10-10c-0.3-0.3-0.3-0.8,0-1.1l10-10c0.3-0.3,0.8-0.3,1.1,0l3.4,3.4
		C14.9,3.8,15,4,15,4.2c0,0.2-0.1,0.4-0.2,0.6l-6,6l6,6c0.2,0.2,0.2,0.4,0.2,0.6c0,0.2-0.1,0.4-0.2,0.6l-3.4,3.4
		C11.2,21.4,11,21.5,10.8,21.5z M1.1,10.7l9.7,9.7l3.1-3.1l-6.5-6.5l6.5-6.5l-3.1-3.1L1.1,10.7z"/>
</g>
</svg>
