<?xml version="1.0" encoding="utf-8"?>
<!-- Generator: Adobe Illustrator 17.0.0, SVG Export Plug-In . SVG Version: 6.00 Build 0)  -->
<!DOCTYPE svg PUBLIC "-//W3C//DTD SVG 1.1//EN" "http://www.w3.org/Graphics/SVG/1.1/DTD/svg11.dtd">
<svg version="1.1" id="Layer_1" xmlns="http://www.w3.org/2000/svg" xmlns:xlink="http://www.w3.org/1999/xlink" x="0px" y="0px"
	 width="16px" height="16px" viewBox="0 0 16 16" enable-background="new 0 0 16 16" xml:space="preserve">
<g>
	<path fill="#0083CA" d="M15,11.9c-2.2,3.9-7,5.3-10.9,3.1c-0.2-0.1-0.3-0.2-0.5-0.3l-2.5,0.9l0.7-2.5c-2.1-2.5-2.5-6.1-0.9-9
		C3.2,0.3,8-1.1,11.9,1C15.8,3.1,17.1,8,15,11.9z M11.4,1.9C8,0,3.7,1.2,1.8,4.6c-1.9,3.4-0.7,7.7,2.7,9.5c3.4,1.9,7.7,0.7,9.6-2.7
		C16,8,14.8,3.7,11.4,1.9z M5,10h6v1H5V10z M5,7.5h6v1H5V7.5z M5,5h6v1H5V5z"/>
</g>
</svg>
