<?xml version="1.0" encoding="utf-8"?>
<!-- Generator: Adobe Illustrator 17.0.0, SVG Export Plug-In . SVG Version: 6.00 Build 0)  -->
<!DOCTYPE svg PUBLIC "-//W3C//DTD SVG 1.1//EN" "http://www.w3.org/Graphics/SVG/1.1/DTD/svg11.dtd">
<svg version="1.1" id="Layer_1" xmlns="http://www.w3.org/2000/svg" xmlns:xlink="http://www.w3.org/1999/xlink" x="0px" y="0px"
	 width="10.3px" height="7.8px" viewBox="0 0 10.3 7.8" enable-background="new 0 0 10.3 7.8" xml:space="preserve">
<g>
	<path fill="#0083CA" d="M10.2,0.9L9.4,0.2c-0.2-0.2-0.5-0.2-0.7,0L5,3.8L3.2,2C3,1.8,2.6,1.8,2.4,2L1.7,2.7c-0.2,0.2-0.2,0.5,0,0.7
		l2.2,2.2c0,0,0,0,0,0.1l0.7,0.7C4.7,6.5,4.9,6.6,5,6.6c0.1,0,0.3,0,0.4-0.2l0.7-0.7c0,0,0,0,0-0.1l4-4C10.4,1.4,10.4,1.1,10.2,0.9z
		"/>
	<g>
		<polygon points="7.5,4.9 7.5,7.5 0.3,7.5 0.3,0.3 7.5,0.3 7.5,0.7 7.8,0.4 7.8,0 0,0 0,7.8 7.8,7.8 7.8,4.5 		"/>
	</g>
</g>
</svg>
