<?xml version="1.0" encoding="utf-8"?>
<!-- Generator: Adobe Illustrator 17.0.0, SVG Export Plug-In . SVG Version: 6.00 Build 0)  -->
<!DOCTYPE svg PUBLIC "-//W3C//DTD SVG 1.1//EN" "http://www.w3.org/Graphics/SVG/1.1/DTD/svg11.dtd">
<svg version="1.1" id="Layer_1" xmlns="http://www.w3.org/2000/svg" xmlns:xlink="http://www.w3.org/1999/xlink" x="0px" y="0px"
	 width="21px" height="21px" viewBox="0 0 21 21" enable-background="new 0 0 21 21" xml:space="preserve">
<g>
	<g id="Inner_Lines_1_1_">
		<g>
			<path fill="#FFFFFF" d="M16.3,8.4c-0.8,0-1.5,0.4-1.9,1.1H4.5c-0.6,0-1.1,0.5-1.1,1.1s0.5,1.1,1.1,1.1h9.9
				c0.4,0.6,1.1,1.1,1.9,1.1c1.2,0,2.1-1,2.1-2.1S17.5,8.4,16.3,8.4z M14.2,11.1H4.5c-0.4,0-0.6-0.3-0.6-0.6s0.3-0.6,0.6-0.6h9.7
				c-0.1,0.2-0.1,0.4-0.1,0.6C14.1,10.7,14.2,10.9,14.2,11.1z M16.3,12.2c-0.9,0-1.7-0.8-1.7-1.7s0.8-1.7,1.7-1.7
				c0.9,0,1.7,0.8,1.7,1.7S17.2,12.2,16.3,12.2z M4.7,7.5c0.8,0,1.5-0.4,1.9-1.1h9.9c0.6,0,1.1-0.5,1.1-1.1s-0.5-1.1-1.1-1.1H6.6
				C6.2,3.6,5.5,3.2,4.7,3.2c-1.2,0-2.1,1-2.1,2.1S3.5,7.5,4.7,7.5z M6.8,4.7h9.7c0.4,0,0.6,0.3,0.6,0.6S16.9,6,16.5,6H6.8
				c0.1-0.2,0.1-0.4,0.1-0.6C6.9,5.1,6.8,4.9,6.8,4.7z M4.7,3.6c0.9,0,1.7,0.8,1.7,1.7S5.7,7.1,4.7,7.1S3,6.3,3,5.4S3.8,3.6,4.7,3.6
				z M16.5,14.6H6.6c0-0.1-0.1-0.2-0.1-0.2c0,0,0,0,0,0C6.3,14.2,6.2,14.1,6,14c0,0,0,0,0,0c-0.1,0-0.1-0.1-0.2-0.1c0,0,0,0,0,0
				c-0.1-0.1-0.3-0.2-0.5-0.2c0,0,0,0-0.1,0c-0.1,0-0.1,0-0.2,0c0,0,0,0-0.1,0c-0.1,0-0.2,0-0.3,0c-1.2,0-2.1,1-2.1,2.1
				s1,2.1,2.1,2.1c0.1,0,0.2,0,0.3,0c0,0,0,0,0.1,0c0.1,0,0.1,0,0.2,0c0,0,0,0,0.1,0c0.2,0,0.3-0.1,0.5-0.2c0,0,0,0,0,0
				c0.1,0,0.1-0.1,0.2-0.1c0,0,0,0,0,0c0.1-0.1,0.3-0.2,0.4-0.4c0,0,0,0,0,0c0.1-0.1,0.1-0.1,0.1-0.2h9.9c0.6,0,1.1-0.5,1.1-1.1
				S17.1,14.6,16.5,14.6z M4.7,17.4c-0.9,0-1.7-0.8-1.7-1.7s0.8-1.7,1.7-1.7s1.7,0.8,1.7,1.7S5.7,17.4,4.7,17.4z M16.5,16.3H6.8
				c0-0.1,0-0.2,0.1-0.3c0,0,0,0,0-0.1c0-0.1,0-0.2,0-0.3c0-0.1,0-0.2,0-0.3c0,0,0,0,0-0.1c0-0.1,0-0.2-0.1-0.3h9.7
				c0.4,0,0.6,0.3,0.6,0.6S16.9,16.3,16.5,16.3z"/>
		</g>
	</g>
	<g id="Outline_1_">
		<g>
			<path fill="#FFFFFF" d="M19.3,0H1.7C0.8,0,0,0.8,0,1.7v17.6C0,20.2,0.8,21,1.7,21h17.6c0.9,0,1.7-0.8,1.7-1.7V1.7
				C21,0.8,20.2,0,19.3,0z M20.1,19.3c0,0.5-0.4,0.9-0.9,0.9H1.7c-0.5,0-0.9-0.4-0.9-0.9V1.7c0-0.5,0.4-0.9,0.9-0.9h17.6
				c0.5,0,0.9,0.4,0.9,0.9V19.3z"/>
		</g>
	</g>
</g>
</svg>
