<?xml version="1.0" encoding="utf-8"?>
<!-- Generator: Adobe Illustrator 17.0.0, SVG Export Plug-In . SVG Version: 6.00 Build 0)  -->
<!DOCTYPE svg PUBLIC "-//W3C//DTD SVG 1.1//EN" "http://www.w3.org/Graphics/SVG/1.1/DTD/svg11.dtd">
<svg version="1.1" id="Layer_1" xmlns="http://www.w3.org/2000/svg" xmlns:xlink="http://www.w3.org/1999/xlink" x="0px" y="0px"
	 width="21px" height="16.6px" viewBox="0 0 21 16.6" enable-background="new 0 0 21 16.6" xml:space="preserve">
<g>
	<g id="Expanded_32_">
		<g>
			<g>
				<path fill="#FFFFFF" d="M18.8,16.6H2.2c-1.2,0-2.2-1-2.2-2.2V2.2C0,1,1,0,2.2,0h16.6C20,0,21,1,21,2.2v12.2
					C21,15.6,20,16.6,18.8,16.6z M2.2,0.9c-0.7,0-1.3,0.6-1.3,1.3v12.2c0,0.7,0.6,1.3,1.3,1.3h16.6c0.7,0,1.3-0.6,1.3-1.3V2.2
					c0-0.7-0.6-1.3-1.3-1.3H2.2z"/>
			</g>
			<g>
				<path fill="#FFFFFF" d="M20.6,5.2H0.4C0.2,5.2,0,5.1,0,4.8s0.2-0.4,0.4-0.4h20.1c0.2,0,0.4,0.2,0.4,0.4S20.8,5.2,20.6,5.2z"/>
			</g>
			<g>
				<circle fill="#FFFFFF" cx="3.5" cy="2.6" r="0.9"/>
			</g>
			<g>
				<circle fill="#FFFFFF" cx="6.1" cy="2.6" r="0.9"/>
			</g>
			<g>
				<circle fill="#FFFFFF" cx="8.7" cy="2.6" r="0.9"/>
			</g>
		</g>
	</g>
	<g>
		<g>
			<path fill="#FFFFFF" d="M7.1,9.9c0,0,0-0.1,0-0.1c0,0,0-0.1-0.1-0.1S7,9.6,7,9.6c-0.1,0-0.1-0.1-0.2-0.1c-0.1,0-0.2-0.1-0.3-0.1
				C6.4,9.3,6.3,9.3,6.2,9.2S6.1,9.1,6,9S6,8.8,6,8.7C6,8.5,6,8.4,6,8.3c0-0.1,0.1-0.2,0.2-0.2C6.3,8,6.4,8,6.5,7.9
				c0.1,0,0.2-0.1,0.4-0.1c0.1,0,0.3,0,0.4,0.1S7.4,8,7.5,8.1c0.1,0.1,0.1,0.2,0.2,0.3c0,0.1,0.1,0.2,0.1,0.3H7.2c0-0.1,0-0.1,0-0.2
				s0-0.1-0.1-0.1c0,0-0.1-0.1-0.1-0.1c0,0-0.1,0-0.1,0c-0.1,0-0.1,0-0.1,0c0,0-0.1,0-0.1,0.1c0,0,0,0.1-0.1,0.1c0,0,0,0.1,0,0.1
				c0,0,0,0.1,0,0.1c0,0,0,0.1,0.1,0.1c0,0,0.1,0.1,0.1,0.1C6.8,9,6.9,9,6.9,9.1c0.1,0,0.2,0.1,0.3,0.2s0.2,0.1,0.2,0.2
				c0.1,0.1,0.1,0.2,0.1,0.2c0,0.1,0,0.2,0,0.3c0,0.1,0,0.2-0.1,0.3c0,0.1-0.1,0.2-0.2,0.2s-0.2,0.1-0.3,0.1c-0.1,0-0.2,0.1-0.4,0.1
				c-0.1,0-0.2,0-0.3-0.1c-0.1,0-0.2-0.1-0.3-0.2C6.1,10.4,6,10.3,6,10.2S5.9,10,5.9,9.8h0.6c0,0.1,0,0.2,0,0.2s0,0.1,0.1,0.1
				c0,0,0.1,0.1,0.1,0.1c0,0,0.1,0,0.2,0c0.1,0,0.1,0,0.1,0s0.1,0,0.1-0.1s0-0.1,0-0.1C7.1,10,7.1,10,7.1,9.9z"/>
			<path fill="#FFFFFF" d="M10,9.5c0,0.2,0,0.4-0.1,0.5c0,0.1-0.1,0.3-0.2,0.4s-0.2,0.2-0.3,0.2c-0.1,0-0.3,0.1-0.4,0.1
				c-0.1,0-0.3,0-0.4-0.1c-0.1,0-0.2-0.1-0.3-0.2c-0.1-0.1-0.2-0.2-0.2-0.4C8,9.9,8,9.7,8,9.5V9.1c0-0.2,0-0.4,0.1-0.5
				s0.1-0.3,0.2-0.4S8.5,8,8.6,8S8.9,7.9,9,7.9c0.1,0,0.3,0,0.4,0.1s0.2,0.1,0.3,0.2c0.1,0.1,0.2,0.2,0.2,0.4S10,8.9,10,9.1V9.5z
				 M9.4,9.1c0-0.1,0-0.2,0-0.3c0-0.1,0-0.2-0.1-0.2S9.3,8.4,9.2,8.4c-0.1,0-0.1,0-0.2,0c-0.1,0-0.1,0-0.2,0c-0.1,0-0.1,0.1-0.1,0.1
				c0,0.1-0.1,0.1-0.1,0.2c0,0.1,0,0.2,0,0.3v0.5c0,0.1,0,0.2,0,0.3c0,0.1,0,0.2,0.1,0.2c0,0.1,0.1,0.1,0.1,0.1c0.1,0,0.1,0,0.2,0
				c0.1,0,0.1,0,0.2,0s0.1-0.1,0.1-0.1S9.4,10,9.4,9.9s0-0.2,0-0.3V9.1z"/>
			<path fill="#FFFFFF" d="M12.3,9.5c0,0.2,0,0.4-0.1,0.5c0,0.1-0.1,0.3-0.2,0.4s-0.2,0.2-0.3,0.2c-0.1,0-0.3,0.1-0.4,0.1
				c-0.1,0-0.3,0-0.4-0.1c-0.1,0-0.2-0.1-0.3-0.2c-0.1-0.1-0.2-0.2-0.2-0.4c0-0.1-0.1-0.3-0.1-0.5V9.1c0-0.2,0-0.4,0.1-0.5
				s0.1-0.3,0.2-0.4S10.8,8,10.9,8s0.3-0.1,0.4-0.1c0.1,0,0.3,0,0.4,0.1s0.2,0.1,0.3,0.2c0.1,0.1,0.2,0.2,0.2,0.4s0.1,0.3,0.1,0.5
				V9.5z M11.8,9.1c0-0.1,0-0.2,0-0.3c0-0.1,0-0.2-0.1-0.2s-0.1-0.1-0.1-0.1c-0.1,0-0.1,0-0.2,0c-0.1,0-0.1,0-0.2,0
				c-0.1,0-0.1,0.1-0.1,0.1c0,0.1-0.1,0.1-0.1,0.2c0,0.1,0,0.2,0,0.3v0.5c0,0.1,0,0.2,0,0.3c0,0.1,0,0.2,0.1,0.2
				c0,0.1,0.1,0.1,0.1,0.1c0.1,0,0.1,0,0.2,0c0.1,0,0.1,0,0.2,0s0.1-0.1,0.1-0.1s0.1-0.1,0.1-0.2s0-0.2,0-0.3V9.1z"/>
			<path fill="#FFFFFF" d="M14.7,10.7h-0.6l-0.8-1.8v1.8h-0.6V7.9h0.6l0.8,1.8V7.9h0.6V10.7z"/>
			<path fill="#FFFFFF" d="M15.1,10.4c0,0,0-0.1,0-0.1c0,0,0-0.1,0.1-0.1s0.1,0,0.1-0.1c0,0,0.1,0,0.1,0c0,0,0.1,0,0.1,0
				c0,0,0.1,0,0.1,0.1c0,0,0,0.1,0.1,0.1c0,0,0,0.1,0,0.1c0,0,0,0.1,0,0.1c0,0,0,0.1-0.1,0.1c0,0-0.1,0-0.1,0.1c0,0-0.1,0-0.1,0
				c0,0-0.1,0-0.1,0c0,0-0.1,0-0.1-0.1s0-0.1-0.1-0.1S15.1,10.5,15.1,10.4z M15.6,9.8h-0.4l-0.1-1.9h0.6L15.6,9.8z"/>
		</g>
	</g>
	<g>
		<path fill="#FFFFFF" d="M15.9,12.3c-0.4,0-9.6,0-10.1,0s-0.5-0.8,0-0.8s9.4,0,10.1,0C16.3,11.6,16.3,12.3,15.9,12.3z"/>
	</g>
</g>
</svg>
