<?xml version="1.0" encoding="utf-8"?>
<!-- Generator: Adobe Illustrator 17.0.0, SVG Export Plug-In . SVG Version: 6.00 Build 0)  -->
<!DOCTYPE svg PUBLIC "-//W3C//DTD SVG 1.1//EN" "http://www.w3.org/Graphics/SVG/1.1/DTD/svg11.dtd">
<svg version="1.1" id="Layer_1" xmlns="http://www.w3.org/2000/svg" xmlns:xlink="http://www.w3.org/1999/xlink" x="0px" y="0px"
	 width="21px" height="16.6px" viewBox="0 0 21 16.6" enable-background="new 0 0 21 16.6" xml:space="preserve">
<g>
	<g id="Expanded_33_">
		<g>
			<g>
				<path fill="#FFFFFF" d="M18.8,16.6H2.2c-1.2,0-2.2-1-2.2-2.2V2.2C0,1,1,0,2.2,0h16.6C20,0,21,1,21,2.2v12.2
					C21,15.6,20,16.6,18.8,16.6z M2.2,0.9c-0.7,0-1.3,0.6-1.3,1.3v12.2c0,0.7,0.6,1.3,1.3,1.3h16.6c0.7,0,1.3-0.6,1.3-1.3V2.2
					c0-0.7-0.6-1.3-1.3-1.3H2.2z"/>
			</g>
			<g>
				<path fill="#FFFFFF" d="M20.6,5.2H0.4C0.2,5.2,0,5.1,0,4.8s0.2-0.4,0.4-0.4h20.1c0.2,0,0.4,0.2,0.4,0.4S20.8,5.2,20.6,5.2z"/>
			</g>
			<g>
				<circle fill="#FFFFFF" cx="3.5" cy="2.6" r="0.9"/>
			</g>
			<g>
				<circle fill="#FFFFFF" cx="6.1" cy="2.6" r="0.9"/>
			</g>
			<g>
				<circle fill="#FFFFFF" cx="8.7" cy="2.6" r="0.9"/>
			</g>
		</g>
	</g>
	<path fill="#FFFFFF" d="M15.3,8.7l1.5,1.4l-1.5,1.4l0-0.4l0-0.7h-0.7H4.6V9.6h9.9h0.7V8.9V8.7 M14.5,7.1v1.8H3.9v2.2h10.6l0,2
		l3.4-3L14.5,7.1L14.5,7.1z"/>
</g>
</svg>
