<?xml version="1.0" encoding="utf-8"?>
<!-- Generator: Adobe Illustrator 17.0.0, SVG Export Plug-In . SVG Version: 6.00 Build 0)  -->
<!DOCTYPE svg PUBLIC "-//W3C//DTD SVG 1.1//EN" "http://www.w3.org/Graphics/SVG/1.1/DTD/svg11.dtd">
<svg version="1.1" id="Layer_1" xmlns="http://www.w3.org/2000/svg" xmlns:xlink="http://www.w3.org/1999/xlink" x="0px" y="0px"
	 width="14px" height="14px" viewBox="0 0 14 14" enable-background="new 0 0 14 14" xml:space="preserve">
<g>
	<path fill="#0083CA" d="M7,1c3.3,0,6,2.7,6,6s-2.7,6-6,6c-3.3,0-6-2.7-6-6S3.7,1,7,1 M7,0C3.1,0,0,3.1,0,7s3.1,7,7,7s7-3.1,7-7
		S10.9,0,7,0L7,0z"/>
	<g>
		<path fill="#0083CA" d="M6.8,8.2c0-0.2,0-0.3,0-0.5c0-0.1,0.1-0.3,0.1-0.4S7,7.2,7.1,7c0.1-0.1,0.2-0.2,0.3-0.4
			c0.1-0.1,0.2-0.2,0.3-0.3s0.1-0.2,0.2-0.3s0.1-0.2,0.1-0.3c0-0.1,0-0.3,0-0.4C8,5.1,8,5,7.9,4.8c0-0.1-0.1-0.3-0.2-0.4
			S7.6,4.3,7.5,4.2C7.4,4.2,7.3,4.2,7.1,4.2c-0.1,0-0.3,0-0.4,0.1S6.6,4.4,6.5,4.4C6.4,4.5,6.3,4.7,6.3,4.8S6.2,5.1,6.2,5.2H5.7
			c0-0.2,0-0.5,0.1-0.6C5.9,4.4,6,4.2,6.1,4.1C6.3,4,6.4,3.9,6.6,3.8c0.2-0.1,0.3-0.1,0.5-0.1c0.2,0,0.4,0,0.6,0.1
			C7.9,3.9,8,4,8.1,4.1c0.1,0.1,0.2,0.3,0.3,0.5c0.1,0.2,0.1,0.4,0.1,0.6c0,0.2,0,0.4-0.1,0.5c0,0.2-0.1,0.3-0.2,0.5
			S8.1,6.5,7.9,6.7S7.7,6.9,7.6,7.1C7.5,7.2,7.4,7.4,7.3,7.6C7.3,7.8,7.2,8,7.2,8.2H6.8z M6.7,9.6c0-0.1,0-0.2,0.1-0.2
			C6.8,9.3,6.9,9.3,7,9.3c0.1,0,0.2,0,0.2,0.1c0.1,0.1,0.1,0.1,0.1,0.2c0,0.1,0,0.2-0.1,0.2C7.2,9.9,7.1,10,7,10
			c-0.1,0-0.2,0-0.2-0.1C6.7,9.8,6.7,9.7,6.7,9.6z"/>
	</g>
</g>
</svg>
