<?xml version="1.0" encoding="utf-8"?>
<!-- Generator: Adobe Illustrator 17.0.0, SVG Export Plug-In . SVG Version: 6.00 Build 0)  -->
<!DOCTYPE svg PUBLIC "-//W3C//DTD SVG 1.1//EN" "http://www.w3.org/Graphics/SVG/1.1/DTD/svg11.dtd">
<svg version="1.1" id="Layer_1" xmlns="http://www.w3.org/2000/svg" xmlns:xlink="http://www.w3.org/1999/xlink" x="0px" y="0px"
	 width="15.4px" height="15px" viewBox="0 0 15.4 15" enable-background="new 0 0 15.4 15" xml:space="preserve">
<g>
	<path fill="#0083CA" d="M4.6,7.6c0.1-0.3,0.1-0.7,0-0.9C4.5,6.3,4.3,6.1,4,6c-0.1,0-0.2,0-0.3,0c-0.5,0-0.9,0.4-1.1,1
		C2.5,7.2,2.5,7.5,2.6,7.8c0.1,0.3,0.3,0.6,0.6,0.7c0.1,0,0.2,0,0.3,0c0.3,0,0.5-0.1,0.7-0.3C4.4,8.1,4.6,7.8,4.6,7.6z M3.9,7.3
		C3.8,7.6,3.6,7.8,3.5,7.8c0,0,0,0-0.1,0c0,0-0.1,0-0.1-0.1c0-0.1,0-0.3,0-0.5c0.1-0.3,0.3-0.5,0.4-0.5c0,0,0,0,0.1,0
		C3.9,6.7,4,7,3.9,7.3z"/>
	<path fill="#0083CA" d="M11.2,8.3c0.2,0.2,0.5,0.3,0.7,0.3h0c0.1,0,0.2,0,0.3,0c0.3-0.1,0.5-0.3,0.6-0.7c0.1-0.3,0-0.6-0.1-0.9
		c-0.2-0.6-0.6-1-1.1-1c-0.1,0-0.2,0-0.3,0c-0.3,0.1-0.5,0.3-0.6,0.7c-0.1,0.3-0.1,0.6,0,0.9C10.9,7.8,11,8.1,11.2,8.3z M11.7,6.7
		C11.7,6.7,11.7,6.7,11.7,6.7c0.2,0,0.4,0.2,0.4,0.5c0.1,0.2,0.1,0.4,0,0.5c0,0.1-0.1,0.1-0.1,0.1c0,0,0,0-0.1,0h0
		c-0.2,0-0.4-0.2-0.5-0.4C11.4,7,11.5,6.7,11.7,6.7z"/>
	<g>
		<path fill="#0083CA" d="M7.7,0.6c1,0,1.9,0.2,2.8,0.7c0.8,0.4,1.6,1,2.3,1.8c1.3,1.5,2.1,3.5,2.1,5.4c0,1.9-0.7,3.4-2.1,4.5
			c-0.3,0.2-0.6,0.5-1,0.6l0,0c1-0.9,1.7-2.1,2.1-3.7c0.6-2.5-0.4-4.3-1-5.1C12,3.7,10.8,3,9.8,3c-0.4,0-0.7,0.1-1,0.3
			C8.4,3.7,8,4.2,7.7,4.7l0,0.1v0l0-0.1C7.4,4.2,7.1,3.7,6.6,3.3C6.4,3.1,6,3,5.6,3c-1,0-2.2,0.7-3.1,1.8c-0.6,0.8-1.6,2.5-1,5.1
			c0.4,1.6,1.1,2.8,2.1,3.7l0,0c-0.3-0.2-0.7-0.4-1-0.6c-1.4-1.1-2.1-2.7-2.1-4.5c0-1.9,0.8-3.9,2.1-5.4c0.7-0.8,1.4-1.3,2.3-1.8
			C5.8,0.8,6.8,0.6,7.7,0.6 M7.7,0.2c-1,0-2,0.2-3,0.7C3.9,1.3,3.1,2,2.4,2.7C1,4.3,0.2,6.4,0.2,8.4c0,2,0.8,3.7,2.2,4.8
			c0.7,0.5,1.5,1,2.4,1.2c0.9,0.3,1.9,0.4,2.9,0.4c1,0,2-0.1,2.9-0.4c0.9-0.3,1.7-0.7,2.4-1.2c1.5-1.2,2.2-2.8,2.2-4.8
			c0-2-0.8-4.1-2.2-5.6c-0.7-0.8-1.5-1.4-2.4-1.8C9.7,0.4,8.7,0.2,7.7,0.2L7.7,0.2z M7.7,12.7c0.8,0,1.6-0.4,2.1-1.3
			c0.4-0.6,0.5-1.2,0.5-1.2l0-0.1c0,0,0.1-0.1,0.1-0.1c0.2-0.3,0.5-0.7,0.5-1c0-1.4-1.1-2.4-2.8-2.5V4.9C8.3,4.4,8.6,4,9,3.6
			c0.2-0.2,0.5-0.2,0.8-0.2c1.7,0,4.7,2.5,3.7,6.4c-0.4,1.7-1.1,2.8-2,3.5c-0.4,0.2-0.8,0.4-1.2,0.5c-0.8,0.3-1.7,0.4-2.7,0.4
			c-1,0-1.9-0.1-2.7-0.4c-0.4-0.1-0.8-0.3-1.2-0.5c-0.8-0.7-1.6-1.8-2-3.5C1,5.9,3.9,3.4,5.6,3.4c0.3,0,0.6,0.1,0.8,0.2
			c0.5,0.4,0.8,0.8,1,1.3v1.7C5.6,6.7,4.5,7.7,4.5,9.1c0,0.3,0.2,0.7,0.5,1c0,0,0.1,0.1,0.1,0.1l0,0.1c0,0,0.1,0.6,0.5,1.2
			C6.2,12.3,6.9,12.7,7.7,12.7L7.7,12.7z M6.1,10.1c-0.1,0-0.1,0-0.2,0C5.7,10,5.5,9.9,5.4,9.7c0-0.1-0.1-0.1-0.1-0.2
			C5.1,9.3,5,9.1,5,9.1c0-0.6,0.3-1.1,0.7-1.4c0.5-0.3,1.2-0.5,2-0.5c0.8,0,1.5,0.2,2,0.5c0.5,0.3,0.7,0.8,0.7,1.4
			c0,0.1-0.1,0.3-0.3,0.5c0,0.1-0.1,0.1-0.1,0.2C9.9,9.9,9.7,10,9.5,10.1c-0.1,0-0.1,0-0.2,0h0c-0.1,0-0.1,0-0.2-0.1L8.8,9.8
			l-0.2,0.4c0,0-0.2,0.6-0.9,1.2c-0.6-0.5-0.9-1.2-0.9-1.2L6.7,9.8L6.3,10C6.2,10.1,6.1,10.1,6.1,10.1L6.1,10.1z M6,10.5
			c0.1,0,0.1,0,0.2,0c0.2,0.4,0.7,1.1,1.5,1.7c0.8-0.5,1.2-1.2,1.5-1.7c0.1,0,0.1,0,0.2,0h0c0.1,0,0.1,0,0.2,0
			c-0.3,0.7-0.9,1.5-1.9,1.7c0,0,0,0,0,0c-0.6-0.1-1.2-0.5-1.7-1.2c-0.1-0.2-0.2-0.3-0.2-0.5C5.9,10.5,6,10.5,6,10.5L6,10.5z
			 M7.7,12.2C7.7,12.2,7.7,12.2,7.7,12.2C7.7,12.2,7.7,12.2,7.7,12.2C7.7,12.2,7.7,12.2,7.7,12.2L7.7,12.2z"/>
	</g>
</g>
</svg>
