<?xml version="1.0" encoding="utf-8"?>
<!-- Generator: Adobe Illustrator 17.0.0, SVG Export Plug-In . SVG Version: 6.00 Build 0)  -->
<!DOCTYPE svg PUBLIC "-//W3C//DTD SVG 1.1//EN" "http://www.w3.org/Graphics/SVG/1.1/DTD/svg11.dtd">
<svg version="1.1" id="Layer_1" xmlns="http://www.w3.org/2000/svg" xmlns:xlink="http://www.w3.org/1999/xlink" x="0px" y="0px"
	 width="15px" height="20px" viewBox="0 0 15 20" enable-background="new 0 0 15 20" xml:space="preserve">
<g>
	<path fill="#FFFFFF" d="M7.1,13.2v2.2c0,0.2,0.2,0.4,0.4,0.4c0.2,0,0.4-0.2,0.4-0.4v-2.2c0.2-0.1,0.4-0.4,0.4-0.7
		c0-0.5-0.4-0.8-0.8-0.8S6.7,12,6.7,12.5C6.7,12.8,6.8,13.1,7.1,13.2z"/>
	<path fill="#FFFFFF" d="M12.5,7.5V5c0-2.8-2.2-5-5-5s-5,2.2-5,5h0.8c0-2.3,1.9-4.2,4.2-4.2s4.2,1.9,4.2,4.2v2.5H0V20h15V7.5H12.5z
		 M14.2,19.2H0.8V8.3h13.3V19.2z"/>
</g>
</svg>
