<?xml version="1.0" encoding="utf-8"?>
<!-- Generator: Adobe Illustrator 17.0.0, SVG Export Plug-In . SVG Version: 6.00 Build 0)  -->
<!DOCTYPE svg PUBLIC "-//W3C//DTD SVG 1.1//EN" "http://www.w3.org/Graphics/SVG/1.1/DTD/svg11.dtd">
<svg version="1.1" id="Layer_1" xmlns="http://www.w3.org/2000/svg" xmlns:xlink="http://www.w3.org/1999/xlink" x="0px" y="0px"
	 width="15px" height="20px" viewBox="0 0 15 20" enable-background="new 0 0 15 20" xml:space="preserve">
<g id="Expanded_35_">
	<g>
		<g>
			<circle fill="#0083CA" cx="7.5" cy="12.5" r="0.8"/>
		</g>
		<g>
			<path fill="#0083CA" d="M7.5,15.8c-0.2,0-0.4-0.2-0.4-0.4v-2.5c0-0.2,0.2-0.4,0.4-0.4c0.2,0,0.4,0.2,0.4,0.4v2.5
				C7.9,15.6,7.7,15.8,7.5,15.8z"/>
		</g>
		<g>
			<path fill="#0083CA" d="M15,20H0V7.5h15V20z M0.8,19.2h13.3V8.3H0.8V19.2z"/>
		</g>
		<g>
			<path fill="#0083CA" d="M12.5,7.9h-0.8V5c0-2.3-1.9-4.2-4.2-4.2S3.3,2.7,3.3,5v2.9H2.5V5c0-2.8,2.2-5,5-5s5,2.2,5,5V7.9z"/>
		</g>
	</g>
</g>
</svg>
