<?xml version="1.0" encoding="utf-8"?>
<!-- Generator: Adobe Illustrator 17.0.0, SVG Export Plug-In . SVG Version: 6.00 Build 0)  -->
<!DOCTYPE svg PUBLIC "-//W3C//DTD SVG 1.1//EN" "http://www.w3.org/Graphics/SVG/1.1/DTD/svg11.dtd">
<svg version="1.1" id="Layer_1" xmlns="http://www.w3.org/2000/svg" xmlns:xlink="http://www.w3.org/1999/xlink" x="0px" y="0px"
	 width="960px" height="560px" viewBox="0 0 960 560" enable-background="new 0 0 960 560" xml:space="preserve">
<g>
	<g>
		<path fill="#FFFFFF" d="M473.8,274.5h7.9c0.2,0,0.4-0.2,0.4-0.4v-3.5c0-0.2-0.2-0.4-0.4-0.4h-1.3v-0.8c0-0.2-0.2-0.4-0.4-0.4h-4.5
			c-0.2,0-0.4,0.2-0.4,0.4v0.8h-1.3c-0.2,0-0.4,0.2-0.4,0.4v3.5C473.4,274.3,473.6,274.5,473.8,274.5L473.8,274.5z M474.2,271h1.3
			c0.2,0,0.4-0.2,0.4-0.4v-0.8h3.7v0.8c0,0.2,0.2,0.4,0.4,0.4h1.3v2.7h-7.1V271z M474.2,271"/>
		<path fill="#FFFFFF" d="M478.5,271.4c0,0.4-0.3,0.7-0.7,0.7c-0.4,0-0.7-0.3-0.7-0.7c0-0.4,0.3-0.7,0.7-0.7
			C478.2,270.6,478.5,271,478.5,271.4L478.5,271.4z M478.5,271.4"/>
	</g>
	<g>
		<path fill="#FFFFFF" d="M483,277.3h-10.4c-0.2,0-0.4-0.2-0.4-0.4s0.2-0.4,0.4-0.4H483c0.2,0,0.4,0.2,0.4,0.4
			S483.2,277.3,483,277.3z"/>
	</g>
	<g>
		<path fill="#FFFFFF" d="M483,278.8h-10.4c-0.2,0-0.4-0.2-0.4-0.4s0.2-0.4,0.4-0.4H483c0.2,0,0.4,0.2,0.4,0.4
			S483.2,278.8,483,278.8z"/>
	</g>
	<g>
		<path fill="#FFFFFF" d="M483,280.3h-10.4c-0.2,0-0.4-0.2-0.4-0.4s0.2-0.4,0.4-0.4H483c0.2,0,0.4,0.2,0.4,0.4
			S483.2,280.3,483,280.3z"/>
	</g>
	<g>
		<path fill="#FFFFFF" d="M476.7,287.9h-4c-0.2,0-0.4-0.2-0.4-0.4s0.2-0.4,0.4-0.4h4c0.2,0,0.4,0.2,0.4,0.4S476.9,287.9,476.7,287.9
			z"/>
	</g>
	<g>
		<path fill="#FFFFFF" d="M485.8,279.3v-7.8c0-0.2-0.2-0.4-0.4-0.4h-2.1c-0.2,0-0.4,0.2-0.4,0.4c0,0.2,0.2,0.4,0.4,0.4h1.7v8.1
			l0.3-0.2L485.8,279.3z"/>
		<path fill="#FFFFFF" d="M485,291.1h-14.6v-19.2h1.7c0.2,0,0.4-0.2,0.4-0.4c0-0.2-0.2-0.4-0.4-0.4h-2.1c-0.2,0-0.4,0.2-0.4,0.4v20
			c0,0.2,0.2,0.4,0.4,0.4h15.4c0.2,0,0.4-0.2,0.4-0.4v-3l-0.8,0.6V291.1z"/>
		<path fill="#FFFFFF" d="M483,281.1h-10.4c-0.2,0-0.4,0.2-0.4,0.4s0.2,0.4,0.4,0.4h9.8l0.8-0.6C483.2,281.2,483.1,281.1,483,281.1z
			"/>
		<path fill="#FFFFFF" d="M472.6,282.6c-0.2,0-0.4,0.2-0.4,0.4s0.2,0.4,0.4,0.4h7.9l1-0.8H472.6z"/>
		<path fill="#FFFFFF" d="M479.9,284.1h-7.2c-0.2,0-0.4,0.2-0.4,0.4s0.2,0.4,0.4,0.4h7l0.2-0.6C479.8,284.2,479.9,284.2,479.9,284.1
			z"/>
		<path fill="#FFFFFF" d="M472.6,285.6c-0.2,0-0.4,0.2-0.4,0.4s0.2,0.4,0.4,0.4h6.6l0.2-0.8H472.6z"/>
	</g>
	<g>
		<path fill="#FFFFFF" d="M490.5,282.9l-2.5-3.3c-0.2-0.2-0.4-0.3-0.6-0.3c-0.2,0-0.4,0.1-0.5,0.2l-5.8,4.4
			c-0.1,0.1-0.2,0.3-0.3,0.4l-1,3.3c-0.1,0.2,0,0.5,0.1,0.7c0.1,0.2,0.3,0.3,0.5,0.3l0.1,0l3.5-0.1c0.2,0,0.3-0.1,0.5-0.2l5.8-4.4
			c0.2-0.1,0.3-0.3,0.3-0.5C490.7,283.3,490.6,283.1,490.5,282.9z M486.1,281.3l0.5,0.6l-4.3,3.3l-0.5-0.6L486.1,281.3z
			 M487.1,282.5l0.4,0.5l-4.3,3.3l-0.4-0.5L487.1,282.5z M481.8,287.9l-0.8-1.1l0.4-1.4l1.9,2.5L481.8,287.9z M484.1,287.6l-0.5-0.6
			l4.3-3.3l0.5,0.6L484.1,287.6z M489,283.8l-0.7-0.9l0,0l-1.6-2l0.7-0.5l2.3,3L489,283.8z"/>
	</g>
	<path fill="#0083CA" d="M489,283.8"/>
</g>
</svg>
