<?xml version="1.0" encoding="utf-8"?>
<!-- Generator: Adobe Illustrator 17.0.0, SVG Export Plug-In . SVG Version: 6.00 Build 0)  -->
<!DOCTYPE svg PUBLIC "-//W3C//DTD SVG 1.1//EN" "http://www.w3.org/Graphics/SVG/1.1/DTD/svg11.dtd">
<svg version="1.1" id="Layer_1" xmlns="http://www.w3.org/2000/svg" xmlns:xlink="http://www.w3.org/1999/xlink" x="0px" y="0px"
	 width="21px" height="22.9px" viewBox="0 0 21 22.9" enable-background="new 0 0 21 22.9" xml:space="preserve">
<g>
	<g>
		<path fill="#FFFFFF" d="M4.1,5.5H12c0.2,0,0.4-0.2,0.4-0.4V1.6c0-0.2-0.2-0.4-0.4-0.4h-1.3V0.4c0-0.2-0.2-0.4-0.4-0.4H5.8
			C5.6,0,5.4,0.2,5.4,0.4v0.8H4.1c-0.2,0-0.4,0.2-0.4,0.4v3.5C3.7,5.3,3.9,5.5,4.1,5.5L4.1,5.5z M4.5,2h1.3c0.2,0,0.4-0.2,0.4-0.4
			V0.8h3.7v0.8c0,0.2,0.2,0.4,0.4,0.4h1.3v2.7H4.5V2z M4.5,2"/>
		<path fill="#FFFFFF" d="M8.8,2.4c0,0.4-0.3,0.7-0.7,0.7c-0.4,0-0.7-0.3-0.7-0.7c0-0.4,0.3-0.7,0.7-0.7C8.5,1.7,8.8,2,8.8,2.4
			L8.8,2.4z M8.8,2.4"/>
	</g>
	<g>
		<path fill="#FFFFFF" d="M13.3,8.4H3C2.8,8.4,2.6,8.2,2.6,8S2.8,7.6,3,7.6h10.4c0.2,0,0.4,0.2,0.4,0.4S13.5,8.4,13.3,8.4z"/>
	</g>
	<g>
		<path fill="#FFFFFF" d="M13.3,9.9H3c-0.2,0-0.4-0.2-0.4-0.4S2.8,9.1,3,9.1h10.4c0.2,0,0.4,0.2,0.4,0.4S13.5,9.9,13.3,9.9z"/>
	</g>
	<g>
		<path fill="#FFFFFF" d="M13.3,11.4H3c-0.2,0-0.4-0.2-0.4-0.4s0.2-0.4,0.4-0.4h10.4c0.2,0,0.4,0.2,0.4,0.4S13.5,11.4,13.3,11.4z"/>
	</g>
	<g>
		<path fill="#FFFFFF" d="M7,18.9H3c-0.2,0-0.4-0.2-0.4-0.4s0.2-0.4,0.4-0.4h4c0.2,0,0.4,0.2,0.4,0.4S7.2,18.9,7,18.9z"/>
	</g>
	<g>
		<path fill="#FFFFFF" d="M16.2,10.3V2.5c0-0.2-0.2-0.4-0.4-0.4h-2.1c-0.2,0-0.4,0.2-0.4,0.4c0,0.2,0.2,0.4,0.4,0.4h1.7V11l0.3-0.2
			L16.2,10.3z"/>
		<path fill="#FFFFFF" d="M15.4,22.1H0.8V2.9h1.7c0.2,0,0.4-0.2,0.4-0.4c0-0.2-0.2-0.4-0.4-0.4H0.4C0.2,2.1,0,2.3,0,2.5v20
			c0,0.2,0.2,0.4,0.4,0.4h15.4c0.2,0,0.4-0.2,0.4-0.4v-3l-0.8,0.6V22.1z"/>
		<path fill="#FFFFFF" d="M13.3,12.1H3c-0.2,0-0.4,0.2-0.4,0.4s0.2,0.4,0.4,0.4h9.8l0.8-0.6C13.5,12.2,13.4,12.1,13.3,12.1z"/>
		<path fill="#FFFFFF" d="M3,13.6c-0.2,0-0.4,0.2-0.4,0.4s0.2,0.4,0.4,0.4h7.9l1-0.8H3z"/>
		<path fill="#FFFFFF" d="M10.2,15.1H3c-0.2,0-0.4,0.2-0.4,0.4s0.2,0.4,0.4,0.4h7l0.2-0.6C10.1,15.2,10.2,15.2,10.2,15.1z"/>
		<path fill="#FFFFFF" d="M3,16.6c-0.2,0-0.4,0.2-0.4,0.4s0.2,0.4,0.4,0.4h6.6l0.2-0.8H3z"/>
	</g>
	<g>
		<path fill="#FFFFFF" d="M20.8,13.9l-2.5-3.3c-0.2-0.2-0.4-0.3-0.6-0.3c-0.2,0-0.4,0.1-0.5,0.2L11.3,15c-0.1,0.1-0.2,0.3-0.3,0.4
			l-1,3.3c-0.1,0.2,0,0.5,0.1,0.7c0.1,0.2,0.3,0.3,0.5,0.3l0.1,0l3.5-0.1c0.2,0,0.3-0.1,0.5-0.2l5.8-4.4c0.2-0.1,0.3-0.3,0.3-0.5
			C21,14.3,20.9,14.1,20.8,13.9z M16.5,12.4l0.5,0.6l-4.3,3.3l-0.5-0.6L16.5,12.4z M17.4,13.6l0.4,0.5l-4.3,3.3l-0.4-0.5L17.4,13.6z
			 M12.1,18.9l-0.8-1.1l0.4-1.4l1.9,2.5L12.1,18.9z M14.4,18.6L13.9,18l4.3-3.3l0.5,0.6L14.4,18.6z M19.4,14.8l-0.7-0.9l0,0l-1.6-2
			l0.7-0.5l2.3,3L19.4,14.8z"/>
	</g>
	<path fill="#0083CA" d="M19.4,14.8"/>
</g>
</svg>
