<?xml version="1.0" encoding="utf-8"?>
<!-- Generator: Adobe Illustrator 17.0.0, SVG Export Plug-In . SVG Version: 6.00 Build 0)  -->
<!DOCTYPE svg PUBLIC "-//W3C//DTD SVG 1.1//EN" "http://www.w3.org/Graphics/SVG/1.1/DTD/svg11.dtd">
<svg version="1.1" id="Layer_1" xmlns="http://www.w3.org/2000/svg" xmlns:xlink="http://www.w3.org/1999/xlink" x="0px" y="0px"
	 width="20px" height="20px" viewBox="0 0 20 20" enable-background="new 0 0 20 20" xml:space="preserve">
<g>
	<path fill-rule="evenodd" clip-rule="evenodd" fill="#0083CA" d="M13,6.3c-0.2,0-0.3-0.1-0.3-0.3s0.1-0.3,0.3-0.3h5.9
		c0.3,0,0.6,0.1,0.8,0.3h0C19.9,6.2,20,6.5,20,6.8v12.1c0,0.3-0.1,0.6-0.3,0.8l0,0c-0.2,0.2-0.5,0.3-0.8,0.3H1.1
		c-0.3,0-0.6-0.1-0.8-0.3C0.1,19.5,0,19.2,0,18.9V6.8C0,6.5,0.1,6.2,0.3,6h0h0c0.2-0.2,0.5-0.3,0.8-0.3H7c0.2,0,0.3,0.1,0.3,0.3
		c0,0.2-0.1,0.3-0.3,0.3H1.1C1,6.3,0.9,6.3,0.8,6.4C0.7,6.5,0.6,6.6,0.6,6.8v12.1c0,0.1,0.1,0.3,0.1,0.3c0.1,0.1,0.2,0.1,0.3,0.1
		h17.8c0.1,0,0.2-0.1,0.3-0.1l0,0c0.1-0.1,0.1-0.2,0.1-0.3V6.8c0-0.1-0.1-0.3-0.1-0.3c-0.1-0.1-0.2-0.1-0.3-0.1H13z M13,6.3"/>
	<path fill-rule="evenodd" clip-rule="evenodd" fill="#0083CA" d="M9.6,16.8c-0.2,0-0.3-0.1-0.3-0.3c0-0.2,0.1-0.3,0.3-0.3h4.8
		c0.2,0,0.3,0.1,0.3,0.3c0,0.2-0.1,0.3-0.3,0.3H9.6z M9.6,15.2c-0.2,0-0.3-0.1-0.3-0.3c0-0.2,0.1-0.3,0.3-0.3h7.7
		c0.2,0,0.3,0.1,0.3,0.3c0,0.2-0.1,0.3-0.3,0.3H9.6z M9.6,13.5c-0.2,0-0.3-0.1-0.3-0.3c0-0.2,0.1-0.3,0.3-0.3h7.7
		c0.2,0,0.3,0.1,0.3,0.3c0,0.2-0.1,0.3-0.3,0.3H9.6z M9.6,11.9c-0.2,0-0.3-0.1-0.3-0.3c0-0.2,0.1-0.3,0.3-0.3h7.7
		c0.2,0,0.3,0.1,0.3,0.3c0,0.2-0.1,0.3-0.3,0.3H9.6z M9.6,11.9"/>
	<path fill-rule="evenodd" clip-rule="evenodd" fill="#0083CA" d="M5.3,11.3c0.5,0,1,0.2,1.4,0.6h0c0.3,0.3,0.6,0.8,0.6,1.4
		c0,0.5-0.2,1-0.6,1.4h0c-0.3,0.3-0.8,0.6-1.4,0.6c-0.5,0-1-0.2-1.4-0.6h0c-0.3-0.3-0.6-0.8-0.6-1.4s0.2-1,0.6-1.4h0
		C4.3,11.5,4.7,11.3,5.3,11.3L5.3,11.3z M6.2,12.3c-0.2-0.2-0.6-0.4-0.9-0.4c-0.4,0-0.7,0.1-0.9,0.4l0,0C4.1,12.5,4,12.9,4,13.2
		c0,0.4,0.1,0.7,0.4,0.9h0c0.2,0.2,0.6,0.4,0.9,0.4c0.4,0,0.7-0.1,0.9-0.4c0.2-0.2,0.4-0.6,0.4-0.9C6.6,12.9,6.4,12.5,6.2,12.3
		L6.2,12.3z M6.2,12.3"/>
	<path fill-rule="evenodd" clip-rule="evenodd" fill="#0083CA" d="M3.7,16.8c-0.2,0-0.3-0.1-0.3-0.3c0-0.2,0.1-0.3,0.3-0.3h3.2
		c0.2,0,0.3,0.1,0.3,0.3c0,0.2-0.1,0.3-0.3,0.3H3.7z M3.7,16.8"/>
	<path fill-rule="evenodd" clip-rule="evenodd" fill="#0083CA" d="M13,7.9c-0.2,0-0.3-0.1-0.3-0.3c0-0.2,0.1-0.3,0.3-0.3h1.6
		c0.2,0,0.3,0.1,0.3,0.3v1.6c0,0.2-0.1,0.3-0.3,0.3H5.4C5.2,9.5,5,9.4,5,9.2V7.6c0-0.2,0.1-0.3,0.3-0.3H7c0.2,0,0.3,0.1,0.3,0.3
		c0,0.2-0.1,0.3-0.3,0.3H5.7v1h8.7v-1H13z M13,7.9"/>
	<path fill-rule="evenodd" clip-rule="evenodd" fill="#0083CA" d="M8.6,0h2.8c0.2,0,0.3,0.1,0.3,0.3v7.3c0,0.2-0.1,0.3-0.3,0.3H8.6
		c-0.2,0-0.3-0.1-0.3-0.3V0.3C8.3,0.1,8.4,0,8.6,0L8.6,0z M11.1,0.6H8.9v6.6h2.2V0.6z M11.1,0.6"/>
	<path fill-rule="evenodd" clip-rule="evenodd" fill="#0083CA" d="M10.5,1.9c0,0.3-0.2,0.5-0.5,0.5c-0.3,0-0.5-0.2-0.5-0.5
		c0-0.3,0.2-0.5,0.5-0.5C10.3,1.4,10.5,1.6,10.5,1.9L10.5,1.9z M10.5,1.9"/>
</g>
</svg>
