<?xml version="1.0" encoding="utf-8"?>
<!-- Generator: Adobe Illustrator 17.0.0, SVG Export Plug-In . SVG Version: 6.00 Build 0)  -->
<!DOCTYPE svg PUBLIC "-//W3C//DTD SVG 1.1//EN" "http://www.w3.org/Graphics/SVG/1.1/DTD/svg11.dtd">
<svg version="1.1" id="Layer_1" xmlns="http://www.w3.org/2000/svg" xmlns:xlink="http://www.w3.org/1999/xlink" x="0px" y="0px"
	 width="960px" height="560px" viewBox="0 0 960 560" enable-background="new 0 0 960 560" xml:space="preserve">
<g>
	<g>
		<path fill="#FFFFFF" d="M483,287.6c-5.2,0-9.4-4.2-9.4-9.4s4.2-9.4,9.4-9.4s9.4,4.2,9.4,9.4S488.2,287.6,483,287.6z M483,269.8
			c-4.6,0-8.4,3.8-8.4,8.4s3.8,8.4,8.4,8.4s8.4-3.8,8.4-8.4S487.6,269.8,483,269.8z"/>
	</g>
	<g>
		<path fill="#FFFFFF" d="M483,284.6c-3.5,0-6.4-2.9-6.4-6.4s2.9-6.4,6.4-6.4s6.4,2.9,6.4,6.4S486.5,284.6,483,284.6z M483,272.8
			c-3,0-5.4,2.4-5.4,5.4s2.4,5.4,5.4,5.4s5.4-2.4,5.4-5.4S485.9,272.8,483,272.8z"/>
	</g>
	<g>
		<g>
			<path fill="#FFFFFF" d="M471.7,292.5c-1,0-2-0.4-2.7-1.2c-0.7-0.7-1-1.6-1-2.6c0-1,0.4-1.9,1.2-2.6l5-4.8l0.7,0.7l-5,4.8
				c-0.5,0.5-0.8,1.2-0.8,1.9c0,0.7,0.2,1.4,0.7,1.9c0.6,0.6,1.4,0.9,2.2,0.8c0.6-0.1,1.2-0.3,1.6-0.7l5.2-4.9l0.7,0.7l-5.2,4.9
				c-0.6,0.6-1.4,0.9-2.2,1C471.9,292.5,471.8,292.5,471.7,292.5z"/>
		</g>
	</g>
	<g>
		
			<rect x="470.1" y="287.2" transform="matrix(0.6933 0.7207 -0.7207 0.6933 352.4084 -252.591)" fill="#FFFFFF" width="5.7" height="1"/>
	</g>
</g>
</svg>
