<?xml version="1.0" encoding="utf-8"?>
<!-- Generator: Adobe Illustrator 17.0.0, SVG Export Plug-In . SVG Version: 6.00 Build 0)  -->
<!DOCTYPE svg PUBLIC "-//W3C//DTD SVG 1.1//EN" "http://www.w3.org/Graphics/SVG/1.1/DTD/svg11.dtd">
<svg version="1.1" id="Layer_1" xmlns="http://www.w3.org/2000/svg" xmlns:xlink="http://www.w3.org/1999/xlink" x="0px" y="0px"
	 width="24.4px" height="23.7px" viewBox="0 0 24.4 23.7" enable-background="new 0 0 24.4 23.7" xml:space="preserve">
<g>
	<g>
		<path fill="#FFFFFF" d="M15,18.8c-5.2,0-9.4-4.2-9.4-9.4S9.8,0,15,0s9.4,4.2,9.4,9.4S20.1,18.8,15,18.8z M15,1
			c-4.6,0-8.4,3.8-8.4,8.4s3.8,8.4,8.4,8.4s8.4-3.8,8.4-8.4S19.6,1,15,1z"/>
	</g>
	<g>
		<path fill="#FFFFFF" d="M15,15.8c-3.5,0-6.4-2.9-6.4-6.4S11.4,3,15,3s6.4,2.9,6.4,6.4S18.5,15.8,15,15.8z M15,4
			c-3,0-5.4,2.4-5.4,5.4s2.4,5.4,5.4,5.4s5.4-2.4,5.4-5.4S17.9,4,15,4z"/>
	</g>
	<g>
		<g>
			<path fill="#FFFFFF" d="M3.7,23.7c-1,0-2-0.4-2.7-1.2c-0.7-0.7-1-1.6-1-2.6c0-1,0.4-1.9,1.2-2.6l5-4.8l0.7,0.7l-5,4.8
				C1.3,18.6,1,19.3,1,20c0,0.7,0.2,1.4,0.7,1.9c0.6,0.6,1.4,0.9,2.2,0.8c0.6-0.1,1.2-0.3,1.6-0.7l5.2-4.9l0.7,0.7l-5.2,4.9
				c-0.6,0.6-1.4,0.9-2.2,1C3.9,23.7,3.8,23.7,3.7,23.7z"/>
		</g>
	</g>
	<g>
		<rect x="2.1" y="18.4" transform="matrix(0.6933 0.7207 -0.7207 0.6933 15.1543 2.2688)" fill="#FFFFFF" width="5.7" height="1"/>
	</g>
</g>
</svg>
