<?xml version="1.0" encoding="utf-8"?>
<!-- Generator: Adobe Illustrator 17.0.0, SVG Export Plug-In . SVG Version: 6.00 Build 0)  -->
<!DOCTYPE svg PUBLIC "-//W3C//DTD SVG 1.1//EN" "http://www.w3.org/Graphics/SVG/1.1/DTD/svg11.dtd">
<svg version="1.1" id="Layer_1" xmlns="http://www.w3.org/2000/svg" xmlns:xlink="http://www.w3.org/1999/xlink" x="0px" y="0px"
	 width="20px" height="20px" viewBox="0 0 20 20" enable-background="new 0 0 20 20" xml:space="preserve">
<g id="Expanded_34_">
	<g>
		<g>
			<path fill="#0083CA" d="M10.8,20H9.2c-0.7,0-1.2-0.6-1.2-1.2v-1.6c-0.5-0.2-1-0.4-1.5-0.6l-1.1,1.1c-0.5,0.5-1.3,0.5-1.8,0
				l-1.2-1.2C2.1,16.2,2,15.9,2,15.6c0-0.3,0.1-0.6,0.4-0.9l1.1-1.1c-0.3-0.5-0.5-1-0.6-1.5H1.2c-0.7,0-1.2-0.6-1.2-1.2V9.2
				c0-0.3,0.1-0.6,0.4-0.9C0.6,8,0.9,7.9,1.2,7.9h1.6c0.2-0.5,0.4-1,0.6-1.5L2.3,5.3C1.9,4.8,1.9,4,2.3,3.5l1.2-1.2
				c0.5-0.5,1.3-0.5,1.8,0l1.1,1.1c0.5-0.3,1-0.5,1.5-0.6V1.2C7.9,0.6,8.5,0,9.2,0h1.7c0.7,0,1.2,0.6,1.2,1.2v1.6
				c0.5,0.2,1,0.4,1.5,0.6l1.1-1.1c0.5-0.5,1.3-0.5,1.8,0l1.2,1.2C17.9,3.8,18,4.1,18,4.4S17.9,5,17.7,5.3l-1.1,1.1
				c0.3,0.5,0.5,1,0.6,1.5h1.6c0.7,0,1.2,0.6,1.2,1.2v1.7c0,0.3-0.1,0.6-0.4,0.9c-0.2,0.2-0.6,0.4-0.9,0.4h-1.6
				c-0.2,0.5-0.4,1-0.6,1.5l1.1,1.1c0.5,0.5,0.5,1.3,0,1.8l-1.2,1.2c-0.5,0.5-1.3,0.5-1.8,0l-1.1-1.1c-0.5,0.3-1,0.5-1.5,0.6v1.6
				C12.1,19.4,11.5,20,10.8,20z M6.3,15.6c0.1,0,0.1,0,0.2,0.1c0.6,0.4,1.2,0.6,1.9,0.8c0.2,0,0.3,0.2,0.3,0.4v1.9
				c0,0.2,0.2,0.4,0.4,0.4h1.7c0.2,0,0.4-0.2,0.4-0.4v-1.9c0-0.2,0.1-0.4,0.3-0.4c0.7-0.2,1.3-0.4,1.9-0.8c0.2-0.1,0.4-0.1,0.5,0.1
				l1.3,1.3c0.2,0.2,0.4,0.2,0.6,0l1.2-1.2c0.2-0.2,0.2-0.4,0-0.6L15.7,14c-0.1-0.1-0.2-0.3-0.1-0.5c0.4-0.6,0.6-1.2,0.8-1.9
				c0-0.2,0.2-0.3,0.4-0.3h1.9c0.1,0,0.2,0,0.3-0.1c0.1-0.1,0.1-0.2,0.1-0.3V9.2c0-0.2-0.2-0.4-0.4-0.4h-1.9c-0.2,0-0.4-0.1-0.4-0.3
				c-0.2-0.7-0.4-1.3-0.8-1.9c-0.1-0.2-0.1-0.4,0.1-0.5l1.3-1.3c0.1-0.1,0.1-0.2,0.1-0.3c0-0.1,0-0.2-0.1-0.3l-1.2-1.2
				c-0.2-0.2-0.4-0.2-0.6,0L14,4.3c-0.1,0.1-0.3,0.2-0.5,0.1c-0.6-0.4-1.2-0.6-1.9-0.8c-0.2,0-0.3-0.2-0.3-0.4V1.2
				c0-0.2-0.2-0.4-0.4-0.4H9.2C8.9,0.8,8.7,1,8.7,1.2v1.9c0,0.2-0.1,0.4-0.3,0.4C7.8,3.7,7.1,4,6.5,4.3C6.4,4.4,6.2,4.4,6,4.3
				L4.7,2.9c-0.2-0.2-0.4-0.2-0.6,0L2.9,4.1c-0.2,0.2-0.2,0.4,0,0.6L4.3,6c0.1,0.1,0.2,0.3,0.1,0.5C4,7.1,3.7,7.8,3.5,8.4
				c0,0.2-0.2,0.3-0.4,0.3H1.2C1.1,8.8,1,8.8,1,8.9C0.9,8.9,0.8,9.1,0.8,9.2v1.7c0,0.2,0.2,0.4,0.4,0.4h1.9c0.2,0,0.4,0.1,0.4,0.3
				c0.2,0.7,0.4,1.3,0.8,1.9c0.1,0.2,0.1,0.4-0.1,0.5l-1.3,1.3c-0.1,0.1-0.1,0.2-0.1,0.3c0,0.1,0,0.2,0.1,0.3l1.2,1.2
				c0.2,0.2,0.4,0.2,0.6,0L6,15.7C6.1,15.7,6.2,15.6,6.3,15.6z"/>
		</g>
		<g>
			<path fill="#0083CA" d="M10,14.2c-2.3,0-4.2-1.9-4.2-4.2S7.7,5.8,10,5.8s4.2,1.9,4.2,4.2S12.3,14.2,10,14.2z M10,6.7
				c-1.8,0-3.3,1.5-3.3,3.3s1.5,3.3,3.3,3.3s3.3-1.5,3.3-3.3S11.8,6.7,10,6.7z"/>
		</g>
	</g>
</g>
</svg>
