<?xml version="1.0" encoding="utf-8"?>
<!-- Generator: Adobe Illustrator 17.0.0, SVG Export Plug-In . SVG Version: 6.00 Build 0)  -->
<!DOCTYPE svg PUBLIC "-//W3C//DTD SVG 1.1//EN" "http://www.w3.org/Graphics/SVG/1.1/DTD/svg11.dtd">
<svg version="1.1" id="Layer_1" xmlns="http://www.w3.org/2000/svg" xmlns:xlink="http://www.w3.org/1999/xlink" x="0px" y="0px"
	 width="21px" height="20.8px" viewBox="0 0 21 20.8" enable-background="new 0 0 21 20.8" xml:space="preserve">
<g>
	<path fill="#FFFFFF" d="M20.7,0h-19c0,0-0.1,0-0.1,0C1.4,0,1.2,0.2,1.2,0.4v1.2H0.8C0.3,1.6,0,1.9,0,2.3v2.8c0,0.4,0.3,0.8,0.8,0.8
		h0.4v8H0.8c-0.4,0-0.8,0.3-0.8,0.8v2.8c0,0.4,0.3,0.8,0.8,0.8h0.4v0.3c0,0,0,0.1,0,0.1v0.7c0,0.2,0.1,0.3,0.3,0.3h19.1
		c0.2,0,0.3-0.1,0.3-0.3V0.4C21,0.2,20.9,0,20.7,0L20.7,0z M0.8,5.2c-0.1,0-0.1-0.1-0.1-0.1V2.3c0-0.1,0.1-0.1,0.1-0.1h0.4v3H0.8z
		 M0.8,17.6c-0.1,0-0.1-0.1-0.1-0.1v-2.8c0-0.1,0.1-0.1,0.1-0.1h0.4v3H0.8z M20.3,19.1H1.9v-0.4c0,0,0-0.1,0-0.1V0.7h18.4L20.3,19.1
		L20.3,19.1z M20.3,19.1"/>
	<path fill="#FFFFFF" d="M8.1,7.3c-0.6,0.7-1,1.6-1,2.6c0,1,0.4,1.9,1,2.6l-1.3,1.3c-0.1,0.1-0.1,0.4,0,0.5c0.1,0.1,0.2,0.1,0.3,0.1
		c0.1,0,0.2,0,0.3-0.1L8.6,13c0.7,0.6,1.6,0.9,2.5,0.9c1,0,1.8-0.3,2.5-0.9l1.3,1.3c0.1,0.1,0.2,0.1,0.3,0.1c0.1,0,0.2,0,0.3-0.1
		c0.1-0.1,0.1-0.4,0-0.5l-1.3-1.3c0.6-0.7,1-1.6,1-2.6c0-1-0.4-1.9-0.9-2.6L15.5,6c0.1-0.1,0.1-0.4,0-0.5c-0.1-0.1-0.4-0.1-0.5,0
		l-1.3,1.3c-0.7-0.6-1.6-0.9-2.6-0.9c-1,0-1.9,0.3-2.5,0.9L7.3,5.5c-0.1-0.1-0.4-0.1-0.5,0C6.6,5.6,6.6,5.8,6.8,6L8.1,7.3z
		 M11.1,13.2c-0.8,0-1.5-0.3-2-0.7l1.1-1.1c0.3,0.2,0.6,0.3,0.9,0.3c0.3,0,0.6-0.1,0.9-0.2l1.1,1.1C12.6,12.9,11.9,13.2,11.1,13.2
		L11.1,13.2z M10.1,9.9c0-0.2,0-0.3,0.1-0.4l0.4,0.4l-0.4,0.4C10.2,10.2,10.1,10,10.1,9.9L10.1,9.9z M11.1,9.4L10.7,9
		c0.1,0,0.2-0.1,0.4-0.1c0.1,0,0.3,0,0.4,0.1L11.1,9.4z M11.5,10.8c-0.1,0-0.2,0.1-0.3,0.1c-0.1,0-0.3,0-0.4-0.1l0.3-0.3L11.5,10.8z
		 M11.6,9.9L12,9.5c0.1,0.1,0.1,0.3,0.1,0.4c0,0.2,0,0.3-0.1,0.5L11.6,9.9z M14.4,9.9c0,0.8-0.3,1.5-0.8,2.1l-1.1-1.1
		c0.2-0.3,0.3-0.6,0.3-1c0-0.3-0.1-0.7-0.3-0.9l1.1-1.1C14.1,8.4,14.4,9.1,14.4,9.9L14.4,9.9z M11.1,6.6c0.8,0,1.5,0.3,2.1,0.7
		l-1.1,1.1c-0.3-0.2-0.6-0.3-0.9-0.3c-0.3,0-0.6,0.1-0.9,0.3L9.1,7.3C9.6,6.9,10.3,6.6,11.1,6.6L11.1,6.6z M9.7,8.9
		c-0.2,0.3-0.3,0.6-0.3,1c0,0.4,0.1,0.7,0.3,1L8.6,12c-0.5-0.6-0.7-1.3-0.7-2.1c0-0.8,0.3-1.5,0.7-2.1L9.7,8.9z M9.7,8.9"/>
	<rect x="2.6" y="20.1" fill="#FFFFFF" width="4.1" height="0.6"/>
	<rect x="15.9" y="20.1" fill="#FFFFFF" width="4.1" height="0.6"/>
</g>
</svg>
