<?xml version="1.0" encoding="utf-8"?>
<!-- Generator: Adobe Illustrator 17.0.0, SVG Export Plug-In . SVG Version: 6.00 Build 0)  -->
<!DOCTYPE svg PUBLIC "-//W3C//DTD SVG 1.1//EN" "http://www.w3.org/Graphics/SVG/1.1/DTD/svg11.dtd">
<svg version="1.1" id="Layer_1" xmlns="http://www.w3.org/2000/svg" xmlns:xlink="http://www.w3.org/1999/xlink" x="0px" y="0px"
	 width="21px" height="21px" viewBox="0 0 21 21" enable-background="new 0 0 21 21" xml:space="preserve">
<g id="Expanded_3_">
	<g>
		<g>
			<path fill="#FFFFFF" d="M4.3,21L4.3,21c-0.6,0-1.1-0.1-1.7-0.3c-0.1-0.1-0.3-0.2-0.3-0.3c0-0.2,0-0.3,0.1-0.4l1.7-1.7v-1.4H2.8
				l-1.7,1.7c-0.1,0.1-0.3,0.2-0.4,0.1c-0.2,0-0.3-0.1-0.3-0.3c-0.7-1.6-0.3-3.5,0.9-4.7c0.8-0.8,1.9-1.3,3-1.3
				c0.5,0,0.9,0.1,1.4,0.2l7-7c-0.5-1.5-0.1-3.2,1-4.4c0.8-0.8,1.9-1.3,3-1.3c0.6,0,1.1,0.1,1.7,0.3c0.1,0.1,0.3,0.2,0.3,0.3
				s0,0.3-0.1,0.4l-1.7,1.7v1.4h1.4l1.7-1.7c0.1-0.1,0.3-0.2,0.4-0.1c0.2,0,0.3,0.1,0.3,0.3c0.7,1.6,0.3,3.5-0.9,4.7
				c-0.8,0.8-1.9,1.3-3,1.3c-0.5,0-0.9-0.1-1.4-0.2l-7,7c0.5,1.5,0.1,3.2-1,4.4C6.5,20.6,5.4,21,4.3,21z M3.7,20
				C3.9,20,4.1,20,4.3,20c0.9,0,1.7-0.3,2.4-1c1-1,1.2-2.4,0.7-3.7c-0.1-0.2,0-0.4,0.1-0.5l7.4-7.4c0.1-0.1,0.3-0.2,0.5-0.1
				c0.4,0.2,0.9,0.3,1.3,0.3c0.9,0,1.7-0.3,2.4-1c0.8-0.8,1.1-1.9,0.9-3L18.7,5c-0.1,0.1-0.2,0.1-0.3,0.1h-2c-0.3,0-0.5-0.2-0.5-0.5
				v-2c0-0.1,0.1-0.2,0.1-0.3L17.3,1C17.1,1,16.9,1,16.7,1c-0.9,0-1.7,0.3-2.4,1c-1,1-1.2,2.4-0.7,3.7c0.1,0.2,0,0.4-0.1,0.5
				l-7.4,7.4c-0.1,0.1-0.3,0.2-0.5,0.1c-0.4-0.2-0.9-0.3-1.3-0.3c-0.9,0-1.7,0.3-2.4,1c-0.8,0.8-1.1,1.9-0.9,3L2.3,16
				c0.1-0.1,0.2-0.1,0.3-0.1h2c0.3,0,0.5,0.2,0.5,0.5v2c0,0.1-0.1,0.2-0.1,0.3L3.7,20z"/>
		</g>
		<g>
			<path fill="#FFFFFF" d="M19.1,21c-0.5,0-1-0.2-1.4-0.6l-4.4-4.4c-0.2-0.2-0.2-0.5,0-0.7l2-2c0.2-0.2,0.5-0.2,0.7,0l4.4,4.4
				c0.4,0.4,0.6,0.8,0.6,1.3c0,0.5-0.2,1-0.6,1.4C20.1,20.8,19.6,21,19.1,21z M14.4,15.7l4,4c0.4,0.4,1,0.4,1.3,0
				c0.2-0.2,0.3-0.4,0.3-0.7c0-0.3-0.1-0.5-0.3-0.7l-4-4L14.4,15.7z"/>
		</g>
		<g>
			
				<rect x="2.7" y="6.1" transform="matrix(-0.7071 -0.7071 0.7071 -0.7071 6.5794 15.8732)" fill="#FFFFFF" width="7.7" height="1"/>
		</g>
		<g>
			<path fill="#FFFFFF" d="M12.7,17.2c-0.1,0-0.2,0-0.3-0.1c-0.2-0.2-0.2-0.5,0-0.7l4-4c0.2-0.2,0.5-0.2,0.7,0
				c0.2,0.2,0.2,0.5,0,0.7l-4,4C12.9,17.2,12.8,17.2,12.7,17.2z"/>
		</g>
		<g>
			<path fill="#FFFFFF" d="M3.2,5C3.1,5,2.9,5,2.8,4.9L0.1,2.2C0.1,2.1,0,2,0,1.8s0.1-0.2,0.1-0.3l1.3-1.3C1.7,0,2,0,2.2,0.1
				l2.7,2.7C5,2.9,5,3,5,3.2S5,3.4,4.9,3.5L3.5,4.9C3.4,5,3.3,5,3.2,5z M1.2,1.8l2,2l0.7-0.7l-2-2L1.2,1.8z"/>
		</g>
		<g>
			
				<rect x="10.6" y="12.6" transform="matrix(-0.7071 -0.7071 0.7071 -0.7071 13.0792 31.5626)" fill="#FFFFFF" width="5" height="1"/>
		</g>
	</g>
</g>
</svg>
