<?xml version="1.0" encoding="utf-8"?>
<!-- Generator: Adobe Illustrator 17.0.0, SVG Export Plug-In . SVG Version: 6.00 Build 0)  -->
<!DOCTYPE svg PUBLIC "-//W3C//DTD SVG 1.1//EN" "http://www.w3.org/Graphics/SVG/1.1/DTD/svg11.dtd">
<svg version="1.1" id="Layer_1" xmlns="http://www.w3.org/2000/svg" xmlns:xlink="http://www.w3.org/1999/xlink" x="0px" y="0px"
	 width="10.4px" height="11.5px" viewBox="0 0 10.4 11.5" enable-background="new 0 0 10.4 11.5" xml:space="preserve">
<g>
	<g enable-background="new    ">
		<g>
			<path fill="#0083CA" d="M0.5,5V1.2L4.1,1v4L0.5,5 M4.6,0.4L0,0.7l0,4.8l4.6,0V0.4"/>
			<path fill="#0083CA" d="M5.6,4.9V0.9l4.1-0.3v4.3L5.6,4.9 M10.4,0L5.1,0.4v5.1l5.3,0V0"/>
			<path fill="#0083CA" d="M0.5,10.3l0-3.8l3.6,0v4L0.5,10.3 M4.6,6L0,6l0,4.8l4.6,0.3V6"/>
			<path fill="#0083CA" d="M5.6,10.7V6.6l4.1,0v4.3L5.6,10.7 M10.4,6L5.1,6v5.1l5.3,0.4V6"/>
		</g>
	</g>
</g>
</svg>
